<svg width="318" height="96" viewBox="0 0 318 96" fill="none" xmlns="http://www.w3.org/2000/svg">
<g filter="url(#filter0_d_4_175)">
<circle cx="48" cy="46" r="40" fill="#FFC8B5"/>
<path d="M64.3333 22.6667H41C38.4263 22.6667 36.3333 24.7597 36.3333 27.3333V40.3673L25.3503 51.3503C25.0241 51.6766 24.802 52.0924 24.712 52.5449C24.622 52.9975 24.6682 53.4666 24.8448 53.8929C25.0213 54.3192 25.3203 54.6835 25.7039 54.9399C26.0876 55.1963 26.5386 55.3332 27 55.3333V67C27 67.6188 27.2458 68.2123 27.6834 68.6499C28.121 69.0875 28.7145 69.3333 29.3333 69.3333H66.6667C67.2855 69.3333 67.879 69.0875 68.3166 68.6499C68.7542 68.2123 69 67.6188 69 67V27.3333C69 24.7597 66.907 22.6667 64.3333 22.6667ZM45.6667 64.6667H31.6667V51.6327L38.6667 44.6327L45.6667 51.6327V64.6667ZM64.3333 64.6667H50.3333V55.3333C50.7953 55.3343 51.2471 55.1981 51.6314 54.9419C52.0158 54.6857 52.3153 54.3211 52.4921 53.8943C52.6688 53.4675 52.7148 52.9979 52.6242 52.5449C52.5335 52.092 52.3104 51.6762 51.983 51.3503L41 40.3673V27.3333H64.3333V64.6667Z" fill="#FF6F3C"/>
<path d="M45.6666 32H50.3333V36.6667H45.6666V32ZM55 32H59.6666V36.6667H55V32ZM55 41.4057H59.6666V46H55V41.4057ZM55 50.6667H59.6666V55.3333H55V50.6667ZM36.3333 53H41V57.6667H36.3333V53Z" fill="#FF6F3C"/>
<path d="M292.241 60.8V31.6H297.147V35.25C298.178 33.8873 299.483 32.8069 301.06 32.0088C302.636 31.1912 304.349 30.7824 306.199 30.7824C307.328 30.7824 308.418 30.9284 309.469 31.2204L307.484 36.126C306.685 35.8729 305.907 35.7464 305.148 35.7464C303.688 35.7464 302.344 36.1065 301.118 36.8268C299.911 37.5276 298.947 38.4815 298.227 39.6884C297.507 40.8953 297.147 42.2385 297.147 43.718V60.8H292.241Z" fill="#FF6F3C"/>
<path d="M278.579 31.6H283.485V60.8H278.579L278.375 55.8652C277.46 57.5588 276.194 58.9312 274.579 59.9824C272.982 61.0336 271.075 61.5592 268.856 61.5592C266.714 61.5592 264.709 61.1601 262.84 60.362C260.972 59.5444 259.317 58.4251 257.876 57.004C256.455 55.5635 255.346 53.9088 254.548 52.04C253.749 50.1712 253.35 48.1564 253.35 45.9956C253.35 43.9127 253.74 41.9465 254.518 40.0972C255.297 38.2479 256.377 36.6321 257.76 35.25C259.161 33.8484 260.777 32.7583 262.607 31.9796C264.437 31.1815 266.403 30.7824 268.505 30.7824C270.802 30.7824 272.817 31.3275 274.55 32.4176C276.282 33.4883 277.684 34.8801 278.754 36.5932L278.579 31.6ZM268.768 56.7996C270.695 56.7996 272.36 56.3324 273.761 55.398C275.182 54.4441 276.272 53.1593 277.032 51.5436C277.81 49.9279 278.2 48.1467 278.2 46.2C278.2 44.2144 277.81 42.4235 277.032 40.8272C276.253 39.2115 275.153 37.9364 273.732 37.002C272.33 36.0481 270.676 35.5712 268.768 35.5712C266.841 35.5712 265.089 36.0481 263.512 37.002C261.935 37.9559 260.68 39.2407 259.745 40.8564C258.83 42.4527 258.373 44.2339 258.373 46.2C258.373 48.1661 258.85 49.9571 259.804 51.5728C260.757 53.1691 262.023 54.4441 263.6 55.398C265.176 56.3324 266.899 56.7996 268.768 56.7996Z" fill="#FF6F3C"/>
<path d="M247.689 36.5056H241.061L241.032 60.8H236.126L236.155 36.5056H231.133V31.6H236.155L236.126 22.4312H241.032L241.061 31.6H247.689V36.5056Z" fill="#FF6F3C"/>
<path d="M217.724 31.6H222.63V60.8H217.724V31.6ZM220.235 26.8404C219.457 26.8404 218.804 26.5873 218.279 26.0812C217.753 25.5751 217.49 24.9424 217.49 24.1832C217.49 23.424 217.753 22.7913 218.279 22.2852C218.804 21.7791 219.447 21.526 220.206 21.526C220.965 21.526 221.608 21.7791 222.133 22.2852C222.659 22.7913 222.922 23.424 222.922 24.1832C222.922 24.9424 222.659 25.5751 222.133 26.0812C221.627 26.5873 220.994 26.8404 220.235 26.8404Z" fill="#FF6F3C"/>
<path d="M194.961 30.7824C197.803 30.7824 200.383 31.4735 202.699 32.8556C205.035 34.2377 206.894 36.0968 208.276 38.4328C209.659 40.7493 210.35 43.3287 210.35 46.1708C210.35 48.2927 209.951 50.288 209.153 52.1568C208.354 54.0061 207.245 55.6413 205.824 57.0624C204.422 58.464 202.787 59.5639 200.918 60.362C199.069 61.1601 197.083 61.5592 194.961 61.5592C192.703 61.5592 190.737 61.0336 189.063 59.9824C187.408 58.9117 186.084 57.5199 185.092 55.8068V60.8H180.186V17H185.092V36.5348C186.084 34.8217 187.408 33.4396 189.063 32.3884C190.737 31.3177 192.703 30.7824 194.961 30.7824ZM194.903 56.7704C196.83 56.7704 198.582 56.2935 200.159 55.3396C201.736 54.3857 202.991 53.1107 203.926 51.5144C204.86 49.8987 205.327 48.1175 205.327 46.1708C205.327 44.1852 204.85 42.3943 203.896 40.798C202.943 39.1823 201.677 37.9072 200.101 36.9728C198.524 36.0189 196.791 35.542 194.903 35.542C192.995 35.542 191.331 36.0189 189.91 36.9728C188.508 37.9267 187.418 39.2115 186.639 40.8272C185.88 42.4429 185.5 44.2241 185.5 46.1708C185.5 48.1369 185.88 49.9279 186.639 51.5436C187.418 53.1399 188.518 54.4149 189.939 55.3688C191.36 56.3032 193.015 56.7704 194.903 56.7704Z" fill="#FF6F3C"/>
<path d="M166.182 31.6H171.088V60.8H166.182L165.978 55.8652C165.063 57.5588 163.797 58.9312 162.182 59.9824C160.585 61.0336 158.678 61.5592 156.458 61.5592C154.317 61.5592 152.312 61.1601 150.443 60.362C148.574 59.5444 146.92 58.4251 145.479 57.004C144.058 55.5635 142.948 53.9088 142.15 52.04C141.352 50.1712 140.953 48.1564 140.953 45.9956C140.953 43.9127 141.342 41.9465 142.121 40.0972C142.9 38.2479 143.98 36.6321 145.362 35.25C146.764 33.8484 148.38 32.7583 150.21 31.9796C152.039 31.1815 154.006 30.7824 156.108 30.7824C158.405 30.7824 160.42 31.3275 162.152 32.4176C163.885 33.4883 165.286 34.8801 166.357 36.5932L166.182 31.6ZM156.371 56.7996C158.298 56.7996 159.962 56.3324 161.364 55.398C162.785 54.4441 163.875 53.1593 164.634 51.5436C165.413 49.9279 165.802 48.1467 165.802 46.2C165.802 44.2144 165.413 42.4235 164.634 40.8272C163.856 39.2115 162.756 37.9364 161.335 37.002C159.933 36.0481 158.278 35.5712 156.371 35.5712C154.444 35.5712 152.692 36.0481 151.115 37.002C149.538 37.9559 148.282 39.2407 147.348 40.8564C146.433 42.4527 145.976 44.2339 145.976 46.2C145.976 48.1661 146.452 49.9571 147.406 51.5728C148.36 53.1691 149.626 54.4441 151.202 55.398C152.779 56.3324 154.502 56.7996 156.371 56.7996Z" fill="#FF6F3C"/>
<path d="M128.141 19.92H133.047V60.8H128.141V41.3528H107.906V60.8H103V19.92H107.906V36.4472H128.141V19.92Z" fill="#FF6F3C"/>
<path d="M105.676 64.4735L103.642 70H103.125L105.345 64.1223H105.705L105.676 64.4735ZM107.525 70L105.487 64.4735L105.458 64.1223H105.818L108.042 70H107.525ZM107.162 67.925V68.3529H104.042V67.925H107.162ZM112.43 69.6649C112.635 69.6649 112.826 69.6273 113.003 69.5519C113.184 69.4739 113.332 69.3595 113.447 69.2088C113.566 69.0554 113.633 68.8683 113.649 68.6476H114.11C114.096 68.9248 114.011 69.1724 113.855 69.3904C113.702 69.6057 113.5 69.7753 113.25 69.8991C113.002 70.0202 112.729 70.0807 112.43 70.0807C112.126 70.0807 111.857 70.0256 111.623 69.9152C111.391 69.8049 111.198 69.6515 111.041 69.455C110.885 69.2559 110.767 69.0244 110.686 68.7607C110.608 68.4942 110.569 68.2076 110.569 67.9008V67.7313C110.569 67.4245 110.608 67.1392 110.686 66.8754C110.767 66.609 110.885 66.3776 111.041 66.1811C111.198 65.9819 111.391 65.8272 111.623 65.7169C111.854 65.6065 112.122 65.5513 112.426 65.5513C112.738 65.5513 113.018 65.6146 113.266 65.7411C113.516 65.8676 113.715 66.0465 113.863 66.278C114.014 66.5094 114.096 66.7839 114.11 67.1015H113.649C113.636 66.8674 113.574 66.6655 113.464 66.496C113.353 66.3264 113.208 66.1959 113.028 66.1044C112.847 66.0129 112.647 65.9671 112.426 65.9671C112.179 65.9671 111.967 66.0156 111.792 66.1125C111.617 66.2067 111.475 66.3372 111.364 66.5041C111.257 66.6682 111.177 66.8566 111.126 67.0692C111.075 67.2791 111.05 67.4998 111.05 67.7313V67.9008C111.05 68.135 111.074 68.3583 111.122 68.5709C111.173 68.7809 111.253 68.9679 111.36 69.1321C111.471 69.2962 111.613 69.4268 111.788 69.5236C111.966 69.6178 112.18 69.6649 112.43 69.6649ZM114.816 67.8847V67.7515C114.816 67.4339 114.862 67.1405 114.953 66.8714C115.045 66.6023 115.175 66.3695 115.345 66.173C115.517 65.9766 115.723 65.8245 115.962 65.7169C116.202 65.6065 116.468 65.5513 116.762 65.5513C117.058 65.5513 117.326 65.6065 117.565 65.7169C117.805 65.8245 118.011 65.9766 118.183 66.173C118.355 66.3695 118.487 66.6023 118.578 66.8714C118.67 67.1405 118.716 67.4339 118.716 67.7515V67.8847C118.716 68.2022 118.67 68.4956 118.578 68.7647C118.487 69.0311 118.355 69.2626 118.183 69.4591C118.013 69.6555 117.809 69.8089 117.569 69.9193C117.33 70.0269 117.063 70.0807 116.77 70.0807C116.474 70.0807 116.206 70.0269 115.967 69.9193C115.727 69.8089 115.521 69.6555 115.349 69.4591C115.177 69.2626 115.045 69.0311 114.953 68.7647C114.862 68.4956 114.816 68.2022 114.816 67.8847ZM115.296 67.7515V67.8847C115.296 68.1242 115.329 68.3516 115.393 68.5669C115.458 68.7795 115.552 68.9692 115.676 69.1361C115.8 69.3003 115.953 69.4295 116.136 69.5236C116.319 69.6178 116.53 69.6649 116.77 69.6649C117.007 69.6649 117.215 69.6178 117.396 69.5236C117.579 69.4295 117.732 69.3003 117.856 69.1361C117.98 68.9692 118.072 68.7795 118.134 68.5669C118.199 68.3516 118.231 68.1242 118.231 67.8847V67.7515C118.231 67.5146 118.199 67.2899 118.134 67.0773C118.072 66.8647 117.978 66.6749 117.852 66.5081C117.728 66.3412 117.575 66.2094 117.392 66.1125C117.209 66.0156 116.999 65.9671 116.762 65.9671C116.525 65.9671 116.315 66.0156 116.132 66.1125C115.952 66.2094 115.798 66.3412 115.672 66.5081C115.548 66.6749 115.454 66.8647 115.389 67.0773C115.327 67.2899 115.296 67.5146 115.296 67.7515ZM120.197 66.3547V70H119.717V65.6321H120.185L120.197 66.3547ZM121.743 65.5998L121.731 66.0438C121.677 66.0358 121.625 66.029 121.574 66.0237C121.523 66.0183 121.467 66.0156 121.408 66.0156C121.198 66.0156 121.014 66.0546 120.855 66.1327C120.699 66.208 120.567 66.3143 120.46 66.4516C120.352 66.5861 120.27 66.7449 120.213 66.9279C120.157 67.1082 120.125 67.302 120.116 67.5092L119.939 67.5779C119.939 67.2926 119.968 67.0275 120.028 66.7826C120.087 66.5377 120.177 66.3237 120.298 66.1407C120.422 65.955 120.577 65.8111 120.762 65.7088C120.951 65.6038 121.171 65.5513 121.424 65.5513C121.486 65.5513 121.547 65.5567 121.606 65.5675C121.668 65.5756 121.714 65.5863 121.743 65.5998ZM122.983 66.3547V70H122.502V65.6321H122.971L122.983 66.3547ZM124.529 65.5998L124.517 66.0438C124.463 66.0358 124.41 66.029 124.359 66.0237C124.308 66.0183 124.253 66.0156 124.194 66.0156C123.984 66.0156 123.799 66.0546 123.641 66.1327C123.485 66.208 123.353 66.3143 123.245 66.4516C123.137 66.5861 123.055 66.7449 122.999 66.9279C122.942 67.1082 122.91 67.302 122.902 67.5092L122.724 67.5779C122.724 67.2926 122.754 67.0275 122.813 66.7826C122.872 66.5377 122.962 66.3237 123.084 66.1407C123.207 65.955 123.362 65.8111 123.548 65.7088C123.736 65.6038 123.957 65.5513 124.21 65.5513C124.272 65.5513 124.332 65.5567 124.391 65.5675C124.453 65.5756 124.499 65.5863 124.529 65.5998ZM126.894 70.0807C126.609 70.0807 126.347 70.0283 126.107 69.9233C125.87 69.8183 125.663 69.6703 125.485 69.4792C125.311 69.2882 125.175 69.0621 125.078 68.801C124.984 68.5373 124.936 68.2493 124.936 67.9371V67.7636C124.936 67.4272 124.986 67.123 125.086 66.8512C125.185 66.5794 125.323 66.3466 125.498 66.1528C125.673 65.9591 125.872 65.8111 126.095 65.7088C126.321 65.6038 126.558 65.5513 126.806 65.5513C127.083 65.5513 127.329 65.6011 127.544 65.7007C127.76 65.7976 127.94 65.9362 128.085 66.1165C128.233 66.2941 128.345 66.5054 128.42 66.7503C128.496 66.9925 128.533 67.2603 128.533 67.5536V67.8483H125.227V67.4366H128.053V67.3801C128.048 67.1352 127.998 66.9064 127.904 66.6938C127.812 66.4785 127.675 66.3036 127.492 66.169C127.309 66.0344 127.08 65.9671 126.806 65.9671C126.601 65.9671 126.413 66.0102 126.24 66.0963C126.071 66.1824 125.924 66.3062 125.8 66.4677C125.679 66.6265 125.585 66.8162 125.518 67.0369C125.453 67.2549 125.421 67.4971 125.421 67.7636V67.9371C125.421 68.1794 125.456 68.4054 125.526 68.6153C125.599 68.8226 125.701 69.0056 125.833 69.1644C125.967 69.3231 126.126 69.4469 126.309 69.5358C126.492 69.6246 126.694 69.669 126.915 69.669C127.173 69.669 127.402 69.6219 127.601 69.5277C127.8 69.4308 127.979 69.2787 128.138 69.0715L128.441 69.3057C128.346 69.4456 128.228 69.5748 128.085 69.6932C127.945 69.8116 127.777 69.9058 127.581 69.9758C127.384 70.0458 127.155 70.0807 126.894 70.0807ZM131.137 65.6321V66.0277H128.949V65.6321H131.137ZM129.752 64.5098H130.233V68.9383C130.233 69.1401 130.26 69.2922 130.314 69.3945C130.367 69.4967 130.437 69.5654 130.524 69.6003C130.61 69.6353 130.703 69.6528 130.802 69.6528C130.875 69.6528 130.945 69.6488 131.012 69.6407C131.079 69.63 131.14 69.6192 131.194 69.6084L131.214 70.0161C131.155 70.035 131.078 70.0498 130.984 70.0606C130.89 70.074 130.795 70.0807 130.701 70.0807C130.515 70.0807 130.351 70.0471 130.209 69.9798C130.066 69.9098 129.954 69.7914 129.874 69.6246C129.793 69.455 129.752 69.2249 129.752 68.9343V64.5098ZM131.803 67.8847V67.7515C131.803 67.4339 131.849 67.1405 131.94 66.8714C132.032 66.6023 132.163 66.3695 132.332 66.173C132.504 65.9766 132.71 65.8245 132.95 65.7169C133.189 65.6065 133.456 65.5513 133.749 65.5513C134.045 65.5513 134.313 65.6065 134.552 65.7169C134.792 65.8245 134.998 65.9766 135.17 66.173C135.342 66.3695 135.474 66.6023 135.566 66.8714C135.657 67.1405 135.703 67.4339 135.703 67.7515V67.8847C135.703 68.2022 135.657 68.4956 135.566 68.7647C135.474 69.0311 135.342 69.2626 135.17 69.4591C135 69.6555 134.796 69.8089 134.556 69.9193C134.317 70.0269 134.05 70.0807 133.757 70.0807C133.461 70.0807 133.193 70.0269 132.954 69.9193C132.714 69.8089 132.508 69.6555 132.336 69.4591C132.164 69.2626 132.032 69.0311 131.94 68.7647C131.849 68.4956 131.803 68.2022 131.803 67.8847ZM132.284 67.7515V67.8847C132.284 68.1242 132.316 68.3516 132.381 68.5669C132.445 68.7795 132.539 68.9692 132.663 69.1361C132.787 69.3003 132.94 69.4295 133.123 69.5236C133.306 69.6178 133.518 69.6649 133.757 69.6649C133.994 69.6649 134.202 69.6178 134.383 69.5236C134.566 69.4295 134.719 69.3003 134.843 69.1361C134.967 68.9692 135.06 68.7795 135.122 68.5669C135.186 68.3516 135.218 68.1242 135.218 67.8847V67.7515C135.218 67.5146 135.186 67.2899 135.122 67.0773C135.06 66.8647 134.965 66.6749 134.839 66.5081C134.715 66.3412 134.562 66.2094 134.379 66.1125C134.196 66.0156 133.986 65.9671 133.749 65.9671C133.512 65.9671 133.302 66.0156 133.119 66.1125C132.939 66.2094 132.786 66.3412 132.659 66.5081C132.535 66.6749 132.441 66.8647 132.376 67.0773C132.315 67.2899 132.284 67.5146 132.284 67.7515ZM137.184 66.3547V70H136.704V65.6321H137.172L137.184 66.3547ZM138.731 65.5998L138.718 66.0438C138.665 66.0358 138.612 66.029 138.561 66.0237C138.51 66.0183 138.455 66.0156 138.395 66.0156C138.186 66.0156 138.001 66.0546 137.842 66.1327C137.686 66.208 137.554 66.3143 137.447 66.4516C137.339 66.5861 137.257 66.7449 137.201 66.9279C137.144 67.1082 137.112 67.302 137.104 67.5092L136.926 67.5779C136.926 67.2926 136.956 67.0275 137.015 66.7826C137.074 66.5377 137.164 66.3237 137.285 66.1407C137.409 65.955 137.564 65.8111 137.75 65.7088C137.938 65.6038 138.159 65.5513 138.412 65.5513C138.474 65.5513 138.534 65.5567 138.593 65.5675C138.655 65.5756 138.701 65.5863 138.731 65.5998ZM141.984 69.2168V66.9643C141.984 66.757 141.941 66.5781 141.855 66.4273C141.769 66.2766 141.642 66.1609 141.476 66.0802C141.309 65.9994 141.103 65.9591 140.858 65.9591C140.632 65.9591 140.43 65.9994 140.252 66.0802C140.078 66.1582 139.939 66.2645 139.837 66.3991C139.737 66.531 139.687 66.6776 139.687 66.8391L139.203 66.8351C139.203 66.6709 139.243 66.5121 139.324 66.3587C139.405 66.2053 139.519 66.0681 139.667 65.947C139.815 65.8259 139.991 65.7303 140.196 65.6603C140.403 65.5877 140.631 65.5513 140.878 65.5513C141.19 65.5513 141.465 65.6038 141.702 65.7088C141.941 65.8137 142.128 65.9712 142.263 66.1811C142.397 66.391 142.465 66.6548 142.465 66.9723V69.0836C142.465 69.2343 142.475 69.3904 142.497 69.5519C142.521 69.7134 142.555 69.8466 142.598 69.9516V70H142.085C142.053 69.9031 142.027 69.782 142.009 69.6367C141.992 69.4887 141.984 69.3487 141.984 69.2168ZM142.097 67.4568L142.105 67.8282H141.157C140.909 67.8282 140.687 67.851 140.491 67.8968C140.297 67.9398 140.133 68.0044 139.998 68.0905C139.864 68.174 139.76 68.2749 139.687 68.3933C139.617 68.5117 139.582 68.6463 139.582 68.797C139.582 68.9531 139.621 69.0957 139.699 69.2249C139.78 69.3541 139.893 69.4577 140.038 69.5358C140.187 69.6111 140.361 69.6488 140.563 69.6488C140.832 69.6488 141.069 69.599 141.274 69.4994C141.481 69.3998 141.652 69.2693 141.786 69.1078C141.921 68.9464 142.011 68.7701 142.057 68.579L142.267 68.8576C142.232 68.9921 142.167 69.1307 142.073 69.2734C141.982 69.4133 141.862 69.5452 141.714 69.669C141.566 69.7901 141.391 69.8897 141.189 69.9677C140.99 70.0431 140.764 70.0807 140.511 70.0807C140.226 70.0807 139.977 70.0269 139.764 69.9193C139.554 69.8116 139.39 69.6649 139.271 69.4792C139.156 69.2909 139.098 69.0782 139.098 68.8414C139.098 68.6261 139.144 68.4337 139.235 68.2641C139.327 68.0919 139.459 67.9466 139.631 67.8282C139.806 67.707 140.016 67.6155 140.261 67.5536C140.508 67.4891 140.785 67.4568 141.092 67.4568H142.097ZM148.617 69.1523V63.7993H149.101V70H148.649L148.617 69.1523ZM145.585 67.8604V67.7757C145.585 67.4366 145.624 67.1311 145.702 66.8593C145.78 66.5848 145.892 66.3506 146.037 66.1569C146.185 65.9604 146.363 65.8111 146.57 65.7088C146.777 65.6038 147.012 65.5513 147.273 65.5513C147.528 65.5513 147.754 65.5931 147.951 65.6765C148.147 65.7599 148.315 65.8797 148.455 66.0358C148.598 66.1919 148.712 66.3776 148.799 66.5929C148.887 66.8082 148.952 67.0477 148.992 67.3114V68.3893C148.96 68.6369 148.901 68.8643 148.815 69.0715C148.729 69.2761 148.614 69.455 148.472 69.6084C148.329 69.7591 148.157 69.8762 147.955 69.9596C147.756 70.0404 147.526 70.0807 147.265 70.0807C147.006 70.0807 146.773 70.0269 146.566 69.9193C146.359 69.8116 146.183 69.6596 146.037 69.4631C145.892 69.2639 145.78 69.0285 145.702 68.7566C145.624 68.4848 145.585 68.1861 145.585 67.8604ZM146.07 67.7757V67.8604C146.07 68.1161 146.095 68.3529 146.146 68.5709C146.197 68.7889 146.275 68.9787 146.38 69.1401C146.485 69.3016 146.619 69.4281 146.78 69.5196C146.942 69.6111 147.133 69.6569 147.353 69.6569C147.631 69.6569 147.863 69.6044 148.052 69.4994C148.24 69.3918 148.391 69.2505 148.504 69.0756C148.617 68.8979 148.699 68.7042 148.75 68.4942V67.2388C148.718 67.0961 148.671 66.9508 148.609 66.8028C148.547 66.6548 148.462 66.5189 148.354 66.3951C148.25 66.2686 148.115 66.1676 147.951 66.0923C147.789 66.0142 147.593 65.9752 147.361 65.9752C147.138 65.9752 146.946 66.021 146.784 66.1125C146.623 66.204 146.488 66.3318 146.38 66.496C146.275 66.6575 146.197 66.8472 146.146 67.0652C146.095 67.2832 146.07 67.52 146.07 67.7757ZM152.06 70.0807C151.775 70.0807 151.513 70.0283 151.273 69.9233C151.036 69.8183 150.829 69.6703 150.651 69.4792C150.477 69.2882 150.341 69.0621 150.244 68.801C150.15 68.5373 150.102 68.2493 150.102 67.9371V67.7636C150.102 67.4272 150.152 67.123 150.252 66.8512C150.351 66.5794 150.489 66.3466 150.664 66.1528C150.839 65.9591 151.038 65.8111 151.261 65.7088C151.487 65.6038 151.724 65.5513 151.972 65.5513C152.249 65.5513 152.495 65.6011 152.71 65.7007C152.926 65.7976 153.106 65.9362 153.251 66.1165C153.399 66.2941 153.511 66.5054 153.586 66.7503C153.662 66.9925 153.699 67.2603 153.699 67.5536V67.8483H150.393V67.4366H153.219V67.3801C153.214 67.1352 153.164 66.9064 153.07 66.6938C152.978 66.4785 152.841 66.3036 152.658 66.169C152.475 66.0344 152.246 65.9671 151.972 65.9671C151.767 65.9671 151.579 66.0102 151.406 66.0963C151.237 66.1824 151.09 66.3062 150.966 66.4677C150.845 66.6265 150.751 66.8162 150.684 67.0369C150.619 67.2549 150.587 67.4971 150.587 67.7636V67.9371C150.587 68.1794 150.622 68.4054 150.692 68.6153C150.765 68.8226 150.867 69.0056 150.999 69.1644C151.133 69.3231 151.292 69.4469 151.475 69.5358C151.658 69.6246 151.86 69.669 152.081 69.669C152.339 69.669 152.568 69.6219 152.767 69.5277C152.966 69.4308 153.145 69.2787 153.304 69.0715L153.606 69.3057C153.512 69.4456 153.394 69.5748 153.251 69.6932C153.111 69.8116 152.943 69.9058 152.747 69.9758C152.55 70.0458 152.321 70.0807 152.06 70.0807ZM157.207 65.6321V70H156.727V65.6321H157.207ZM156.642 64.3685C156.642 64.277 156.671 64.2003 156.727 64.1384C156.786 64.0738 156.867 64.0415 156.969 64.0415C157.071 64.0415 157.152 64.0738 157.211 64.1384C157.273 64.2003 157.304 64.277 157.304 64.3685C157.304 64.4573 157.273 64.534 157.211 64.5986C157.152 64.6605 157.071 64.6915 156.969 64.6915C156.867 64.6915 156.786 64.6605 156.727 64.5986C156.671 64.534 156.642 64.4573 156.642 64.3685ZM158.984 66.5363V70H158.499V65.6321H158.963L158.984 66.5363ZM158.895 67.5456L158.661 67.4245C158.677 67.1661 158.725 66.9239 158.806 66.6978C158.889 66.4718 159.005 66.2726 159.153 66.1004C159.301 65.9281 159.479 65.7936 159.686 65.6967C159.893 65.5998 160.129 65.5513 160.393 65.5513C160.605 65.5513 160.798 65.5809 160.97 65.6402C161.145 65.6967 161.293 65.7868 161.414 65.9106C161.538 66.0317 161.633 66.1905 161.7 66.387C161.768 66.5834 161.801 66.8189 161.801 67.0934V70H161.321V67.1096C161.321 66.8189 161.275 66.5915 161.184 66.4273C161.095 66.2632 160.97 66.1461 160.808 66.0761C160.65 66.0062 160.465 65.9712 160.255 65.9712C160.008 65.9712 159.798 66.0223 159.626 66.1246C159.456 66.2242 159.317 66.3547 159.21 66.5162C159.105 66.6749 159.027 66.8458 158.976 67.0288C158.924 67.2092 158.898 67.3814 158.895 67.5456ZM161.797 67.1661L161.474 67.1742C161.488 66.9616 161.536 66.7584 161.62 66.5646C161.706 66.3708 161.823 66.1986 161.971 66.0479C162.119 65.8945 162.295 65.7734 162.5 65.6846C162.707 65.5957 162.94 65.5513 163.198 65.5513C163.424 65.5513 163.626 65.5823 163.804 65.6442C163.981 65.7034 164.131 65.7989 164.252 65.9308C164.376 66.06 164.47 66.2255 164.534 66.4273C164.599 66.6292 164.631 66.8714 164.631 67.154V70H164.147V67.15C164.147 66.8405 164.101 66.6009 164.01 66.4314C163.921 66.2591 163.797 66.1394 163.638 66.0721C163.479 66.0048 163.294 65.9712 163.081 65.9712C162.871 65.9739 162.687 66.0129 162.528 66.0883C162.369 66.1609 162.236 66.2578 162.128 66.3789C162.023 66.4973 161.943 66.6252 161.886 66.7624C161.832 66.8997 161.803 67.0342 161.797 67.1661ZM165.592 67.8847V67.7515C165.592 67.4339 165.638 67.1405 165.729 66.8714C165.821 66.6023 165.951 66.3695 166.121 66.173C166.293 65.9766 166.499 65.8245 166.739 65.7169C166.978 65.6065 167.244 65.5513 167.538 65.5513C167.834 65.5513 168.102 65.6065 168.341 65.7169C168.581 65.8245 168.787 65.9766 168.959 66.173C169.131 66.3695 169.263 66.6023 169.354 66.8714C169.446 67.1405 169.492 67.4339 169.492 67.7515V67.8847C169.492 68.2022 169.446 68.4956 169.354 68.7647C169.263 69.0311 169.131 69.2626 168.959 69.4591C168.789 69.6555 168.585 69.8089 168.345 69.9193C168.106 70.0269 167.839 70.0807 167.546 70.0807C167.25 70.0807 166.982 70.0269 166.743 69.9193C166.503 69.8089 166.297 69.6555 166.125 69.4591C165.953 69.2626 165.821 69.0311 165.729 68.7647C165.638 68.4956 165.592 68.2022 165.592 67.8847ZM166.072 67.7515V67.8847C166.072 68.1242 166.105 68.3516 166.169 68.5669C166.234 68.7795 166.328 68.9692 166.452 69.1361C166.576 69.3003 166.729 69.4295 166.912 69.5236C167.095 69.6178 167.306 69.6649 167.546 69.6649C167.783 69.6649 167.991 69.6178 168.172 69.5236C168.355 69.4295 168.508 69.3003 168.632 69.1361C168.756 68.9692 168.848 68.7795 168.91 68.5669C168.975 68.3516 169.007 68.1242 169.007 67.8847V67.7515C169.007 67.5146 168.975 67.2899 168.91 67.0773C168.848 66.8647 168.754 66.6749 168.628 66.5081C168.504 66.3412 168.351 66.2094 168.168 66.1125C167.985 66.0156 167.775 65.9671 167.538 65.9671C167.301 65.9671 167.091 66.0156 166.908 66.1125C166.728 66.2094 166.574 66.3412 166.448 66.5081C166.324 66.6749 166.23 66.8647 166.165 67.0773C166.103 67.2899 166.072 67.5146 166.072 67.7515ZM167.247 64.9377L168.018 63.8074H168.6L167.667 64.9377H167.247ZM171.716 69.5358L173.117 65.6321H173.613L171.978 70H171.627L171.716 69.5358ZM170.448 65.6321L171.865 69.5479L171.942 70H171.587L169.948 65.6321H170.448ZM176.04 70.0807C175.754 70.0807 175.492 70.0283 175.252 69.9233C175.015 69.8183 174.808 69.6703 174.631 69.4792C174.456 69.2882 174.32 69.0621 174.223 68.801C174.129 68.5373 174.082 68.2493 174.082 67.9371V67.7636C174.082 67.4272 174.131 67.123 174.231 66.8512C174.331 66.5794 174.468 66.3466 174.643 66.1528C174.818 65.9591 175.017 65.8111 175.24 65.7088C175.466 65.6038 175.703 65.5513 175.951 65.5513C176.228 65.5513 176.474 65.6011 176.689 65.7007C176.905 65.7976 177.085 65.9362 177.23 66.1165C177.378 66.2941 177.49 66.5054 177.565 66.7503C177.641 66.9925 177.678 67.2603 177.678 67.5536V67.8483H174.372V67.4366H177.198V67.3801C177.193 67.1352 177.143 66.9064 177.049 66.6938C176.957 66.4785 176.82 66.3036 176.637 66.169C176.454 66.0344 176.225 65.9671 175.951 65.9671C175.746 65.9671 175.558 66.0102 175.386 66.0963C175.216 66.1824 175.069 66.3062 174.946 66.4677C174.824 66.6265 174.73 66.8162 174.663 67.0369C174.598 67.2549 174.566 67.4971 174.566 67.7636V67.9371C174.566 68.1794 174.601 68.4054 174.671 68.6153C174.744 68.8226 174.846 69.0056 174.978 69.1644C175.112 69.3231 175.271 69.4469 175.454 69.5358C175.637 69.6246 175.839 69.669 176.06 69.669C176.318 69.669 176.547 69.6219 176.746 69.5277C176.945 69.4308 177.124 69.2787 177.283 69.0715L177.586 69.3057C177.491 69.4456 177.373 69.5748 177.23 69.6932C177.09 69.8116 176.922 69.9058 176.726 69.9758C176.529 70.0458 176.301 70.0807 176.04 70.0807ZM179.168 65.6321V70H178.688V65.6321H179.168ZM178.603 64.3685C178.603 64.277 178.631 64.2003 178.688 64.1384C178.747 64.0738 178.828 64.0415 178.93 64.0415C179.032 64.0415 179.113 64.0738 179.172 64.1384C179.234 64.2003 179.265 64.277 179.265 64.3685C179.265 64.4573 179.234 64.534 179.172 64.5986C179.113 64.6605 179.032 64.6915 178.93 64.6915C178.828 64.6915 178.747 64.6605 178.688 64.5986C178.631 64.534 178.603 64.4573 178.603 64.3685ZM183.104 68.8858C183.104 68.7674 183.074 68.6503 183.015 68.5346C182.956 68.4189 182.842 68.3126 182.672 68.2157C182.505 68.1188 182.259 68.0367 181.933 67.9694C181.691 67.9156 181.475 67.8551 181.283 67.7878C181.095 67.7205 180.936 67.6398 180.807 67.5456C180.678 67.4514 180.58 67.3383 180.512 67.2065C180.445 67.0746 180.411 66.9185 180.411 66.7382C180.411 66.5767 180.446 66.4247 180.516 66.282C180.589 66.1367 180.691 66.0102 180.823 65.9026C180.958 65.7922 181.119 65.7061 181.308 65.6442C181.499 65.5823 181.713 65.5513 181.95 65.5513C182.286 65.5513 182.574 65.6092 182.813 65.7249C183.056 65.838 183.24 65.9927 183.366 66.1892C183.496 66.3856 183.56 66.6077 183.56 66.8553H183.08C183.08 66.7045 183.035 66.5619 182.947 66.4273C182.861 66.2928 182.733 66.1824 182.563 66.0963C182.396 66.0102 182.192 65.9671 181.95 65.9671C181.699 65.9671 181.496 66.0048 181.34 66.0802C181.184 66.1555 181.069 66.2511 180.997 66.3668C180.927 66.4825 180.892 66.6023 180.892 66.7261C180.892 66.823 180.907 66.9118 180.936 66.9925C180.969 67.0706 181.025 67.1432 181.106 67.2105C181.189 67.2778 181.308 67.341 181.461 67.4002C181.614 67.4594 181.814 67.5173 182.059 67.5738C182.411 67.6519 182.699 67.7474 182.922 67.8604C183.148 67.9708 183.315 68.108 183.423 68.2722C183.531 68.4337 183.584 68.6301 183.584 68.8616C183.584 69.0419 183.547 69.2074 183.471 69.3581C183.396 69.5062 183.287 69.634 183.144 69.7416C183.005 69.8493 182.835 69.9327 182.636 69.9919C182.439 70.0511 182.219 70.0807 181.974 70.0807C181.605 70.0807 181.293 70.0202 181.037 69.8991C180.784 69.7753 180.592 69.6138 180.46 69.4147C180.331 69.2128 180.266 68.9989 180.266 68.7728H180.747C180.763 68.9989 180.834 69.1778 180.96 69.3097C181.087 69.4389 181.242 69.5304 181.425 69.5842C181.61 69.638 181.793 69.6649 181.974 69.6649C182.221 69.6649 182.429 69.6286 182.595 69.5559C182.762 69.4833 182.889 69.3877 182.975 69.2693C183.061 69.1509 183.104 69.0231 183.104 68.8858ZM189.535 71.6793V66.4718L189.567 65.6321H190.015V71.6793H189.535ZM186.503 67.8604V67.7757C186.503 67.4366 186.541 67.1311 186.616 66.8593C186.692 66.5848 186.802 66.3506 186.947 66.1569C187.095 65.9604 187.273 65.8111 187.48 65.7088C187.69 65.6038 187.928 65.5513 188.195 65.5513C188.45 65.5513 188.678 65.5931 188.877 65.6765C189.076 65.7599 189.247 65.8797 189.39 66.0358C189.535 66.1919 189.652 66.3776 189.741 66.5929C189.83 66.8082 189.894 67.0477 189.935 67.3114V68.3893C189.902 68.6369 189.842 68.8643 189.753 69.0715C189.667 69.2761 189.551 69.455 189.406 69.6084C189.26 69.7591 189.085 69.8762 188.881 69.9596C188.679 70.0404 188.448 70.0807 188.187 70.0807C187.923 70.0807 187.686 70.0269 187.476 69.9193C187.269 69.8116 187.093 69.6596 186.947 69.4631C186.805 69.2639 186.694 69.0285 186.616 68.7566C186.541 68.4848 186.503 68.1861 186.503 67.8604ZM186.988 67.7757V67.8604C186.988 68.1161 187.013 68.3529 187.064 68.5709C187.118 68.7889 187.197 68.98 187.302 69.1442C187.407 69.3083 187.541 69.4362 187.702 69.5277C187.866 69.6192 188.057 69.6649 188.275 69.6649C188.553 69.6649 188.787 69.6111 188.978 69.5035C189.169 69.3958 189.321 69.2532 189.434 69.0756C189.55 68.8979 189.633 68.7042 189.684 68.4942V67.2388C189.657 67.1015 189.612 66.9589 189.547 66.8109C189.482 66.6628 189.395 66.5256 189.285 66.3991C189.177 66.2699 189.041 66.1663 188.877 66.0883C188.713 66.0075 188.515 65.9671 188.283 65.9671C188.063 65.9671 187.87 66.0142 187.706 66.1084C187.545 66.1999 187.41 66.3278 187.302 66.4919C187.197 66.6561 187.118 66.8472 187.064 67.0652C187.013 67.2832 186.988 67.52 186.988 67.7757ZM194.105 68.9908V65.6321H194.589V70H194.125L194.105 68.9908ZM194.193 68.1834L194.444 68.1753C194.444 68.4498 194.411 68.7028 194.347 68.9343C194.282 69.1657 194.181 69.3676 194.044 69.5398C193.907 69.712 193.729 69.8453 193.511 69.9394C193.293 70.0336 193.031 70.0807 192.724 70.0807C192.511 70.0807 192.316 70.0511 192.139 69.9919C191.964 69.93 191.813 69.8331 191.687 69.7013C191.56 69.5694 191.462 69.3985 191.392 69.1886C191.325 68.9787 191.291 68.7243 191.291 68.4256V65.6321H191.771V68.4337C191.771 68.6678 191.797 68.8629 191.848 69.019C191.902 69.1751 191.974 69.3003 192.066 69.3945C192.16 69.4887 192.268 69.5559 192.389 69.5963C192.51 69.6367 192.641 69.6569 192.781 69.6569C193.136 69.6569 193.416 69.5882 193.62 69.451C193.827 69.3137 193.974 69.1334 194.06 68.91C194.149 68.684 194.193 68.4418 194.193 68.1834ZM197.54 70.0807C197.255 70.0807 196.992 70.0283 196.753 69.9233C196.516 69.8183 196.309 69.6703 196.131 69.4792C195.956 69.2882 195.82 69.0621 195.723 68.801C195.629 68.5373 195.582 68.2493 195.582 67.9371V67.7636C195.582 67.4272 195.632 67.123 195.731 66.8512C195.831 66.5794 195.968 66.3466 196.143 66.1528C196.318 65.9591 196.517 65.8111 196.741 65.7088C196.967 65.6038 197.204 65.5513 197.451 65.5513C197.728 65.5513 197.975 65.6011 198.19 65.7007C198.405 65.7976 198.586 65.9362 198.731 66.1165C198.879 66.2941 198.991 66.5054 199.066 66.7503C199.141 66.9925 199.179 67.2603 199.179 67.5536V67.8483H195.873V67.4366H198.699V67.3801C198.693 67.1352 198.643 66.9064 198.549 66.6938C198.458 66.4785 198.32 66.3036 198.137 66.169C197.954 66.0344 197.726 65.9671 197.451 65.9671C197.247 65.9671 197.058 66.0102 196.886 66.0963C196.716 66.1824 196.57 66.3062 196.446 66.4677C196.325 66.6265 196.231 66.8162 196.163 67.0369C196.099 67.2549 196.067 67.4971 196.067 67.7636V67.9371C196.067 68.1794 196.102 68.4054 196.172 68.6153C196.244 68.8226 196.346 69.0056 196.478 69.1644C196.613 69.3231 196.772 69.4469 196.955 69.5358C197.138 69.6246 197.34 69.669 197.56 69.669C197.819 69.669 198.047 69.6219 198.246 69.5277C198.446 69.4308 198.625 69.2787 198.783 69.0715L199.086 69.3057C198.992 69.4456 198.874 69.5748 198.731 69.6932C198.591 69.8116 198.423 69.9058 198.226 69.9758C198.03 70.0458 197.801 70.0807 197.54 70.0807ZM203.761 69.6649C203.965 69.6649 204.156 69.6273 204.334 69.5519C204.514 69.4739 204.662 69.3595 204.778 69.2088C204.897 69.0554 204.964 68.8683 204.98 68.6476H205.44C205.427 68.9248 205.342 69.1724 205.186 69.3904C205.032 69.6057 204.831 69.7753 204.58 69.8991C204.333 70.0202 204.06 70.0807 203.761 70.0807C203.457 70.0807 203.188 70.0256 202.953 69.9152C202.722 69.8049 202.528 69.6515 202.372 69.455C202.216 69.2559 202.098 69.0244 202.017 68.7607C201.939 68.4942 201.9 68.2076 201.9 67.9008V67.7313C201.9 67.4245 201.939 67.1392 202.017 66.8754C202.098 66.609 202.216 66.3776 202.372 66.1811C202.528 65.9819 202.722 65.8272 202.953 65.7169C203.185 65.6065 203.453 65.5513 203.757 65.5513C204.069 65.5513 204.349 65.6146 204.596 65.7411C204.847 65.8676 205.046 66.0465 205.194 66.278C205.345 66.5094 205.427 66.7839 205.44 67.1015H204.98C204.967 66.8674 204.905 66.6655 204.794 66.496C204.684 66.3264 204.539 66.1959 204.358 66.1044C204.178 66.0129 203.978 65.9671 203.757 65.9671C203.509 65.9671 203.298 66.0156 203.123 66.1125C202.948 66.2067 202.805 66.3372 202.695 66.5041C202.587 66.6682 202.508 66.8566 202.457 67.0692C202.406 67.2791 202.38 67.4998 202.38 67.7313V67.9008C202.38 68.135 202.404 68.3583 202.453 68.5709C202.504 68.7809 202.583 68.9679 202.691 69.1321C202.801 69.2962 202.944 69.4268 203.119 69.5236C203.297 69.6178 203.511 69.6649 203.761 69.6649ZM206.147 67.8847V67.7515C206.147 67.4339 206.192 67.1405 206.284 66.8714C206.375 66.6023 206.506 66.3695 206.676 66.173C206.848 65.9766 207.054 65.8245 207.293 65.7169C207.533 65.6065 207.799 65.5513 208.092 65.5513C208.388 65.5513 208.656 65.6065 208.896 65.7169C209.135 65.8245 209.341 65.9766 209.513 66.173C209.686 66.3695 209.818 66.6023 209.909 66.8714C210.001 67.1405 210.046 67.4339 210.046 67.7515V67.8847C210.046 68.2022 210.001 68.4956 209.909 68.7647C209.818 69.0311 209.686 69.2626 209.513 69.4591C209.344 69.6555 209.139 69.8089 208.9 69.9193C208.66 70.0269 208.394 70.0807 208.101 70.0807C207.804 70.0807 207.537 70.0269 207.297 69.9193C207.058 69.8089 206.852 69.6555 206.68 69.4591C206.507 69.2626 206.375 69.0311 206.284 68.7647C206.192 68.4956 206.147 68.2022 206.147 67.8847ZM206.627 67.7515V67.8847C206.627 68.1242 206.659 68.3516 206.724 68.5669C206.789 68.7795 206.883 68.9692 207.007 69.1361C207.13 69.3003 207.284 69.4295 207.467 69.5236C207.65 69.6178 207.861 69.6649 208.101 69.6649C208.337 69.6649 208.546 69.6178 208.726 69.5236C208.909 69.4295 209.063 69.3003 209.186 69.1361C209.31 68.9692 209.403 68.7795 209.465 68.5669C209.53 68.3516 209.562 68.1242 209.562 67.8847V67.7515C209.562 67.5146 209.53 67.2899 209.465 67.0773C209.403 66.8647 209.309 66.6749 209.182 66.5081C209.059 66.3412 208.905 66.2094 208.722 66.1125C208.539 66.0156 208.329 65.9671 208.092 65.9671C207.856 65.9671 207.646 66.0156 207.463 66.1125C207.282 66.2094 207.129 66.3412 207.002 66.5081C206.879 66.6749 206.784 66.8647 206.72 67.0773C206.658 67.2899 206.627 67.5146 206.627 67.7515ZM211.528 66.5646V70H211.047V65.6321H211.508L211.528 66.5646ZM211.419 67.5456L211.205 67.4245C211.221 67.1661 211.274 66.9239 211.362 66.6978C211.451 66.4718 211.571 66.2726 211.722 66.1004C211.875 65.9281 212.054 65.7936 212.259 65.6967C212.466 65.5998 212.695 65.5513 212.945 65.5513C213.163 65.5513 213.358 65.5809 213.53 65.6402C213.702 65.6994 213.849 65.7936 213.97 65.9227C214.091 66.0519 214.183 66.2174 214.245 66.4193C214.309 66.6211 214.342 66.8674 214.342 67.158V70H213.857V67.154C213.857 66.8526 213.815 66.6171 213.732 66.4475C213.649 66.2753 213.53 66.1528 213.377 66.0802C213.223 66.0075 213.042 65.9712 212.832 65.9712C212.6 65.9712 212.397 66.0223 212.222 66.1246C212.05 66.2242 211.905 66.3547 211.786 66.5162C211.67 66.6749 211.582 66.8458 211.52 67.0288C211.458 67.2092 211.424 67.3814 211.419 67.5456ZM217.28 70.0807C216.995 70.0807 216.733 70.0283 216.493 69.9233C216.256 69.8183 216.049 69.6703 215.872 69.4792C215.697 69.2882 215.561 69.0621 215.464 68.801C215.37 68.5373 215.323 68.2493 215.323 67.9371V67.7636C215.323 67.4272 215.372 67.123 215.472 66.8512C215.571 66.5794 215.709 66.3466 215.884 66.1528C216.059 65.9591 216.258 65.8111 216.481 65.7088C216.707 65.6038 216.944 65.5513 217.192 65.5513C217.469 65.5513 217.715 65.6011 217.93 65.7007C218.146 65.7976 218.326 65.9362 218.471 66.1165C218.619 66.2941 218.731 66.5054 218.806 66.7503C218.882 66.9925 218.919 67.2603 218.919 67.5536V67.8483H215.613V67.4366H218.439V67.3801C218.434 67.1352 218.384 66.9064 218.29 66.6938C218.198 66.4785 218.061 66.3036 217.878 66.169C217.695 66.0344 217.466 65.9671 217.192 65.9671C216.987 65.9671 216.799 66.0102 216.626 66.0963C216.457 66.1824 216.31 66.3062 216.186 66.4677C216.065 66.6265 215.971 66.8162 215.904 67.0369C215.839 67.2549 215.807 67.4971 215.807 67.7636V67.9371C215.807 68.1794 215.842 68.4054 215.912 68.6153C215.985 68.8226 216.087 69.0056 216.219 69.1644C216.353 69.3231 216.512 69.4469 216.695 69.5358C216.878 69.6246 217.08 69.669 217.301 69.669C217.559 69.669 217.788 69.6219 217.987 69.5277C218.186 69.4308 218.365 69.2787 218.524 69.0715L218.827 69.3057C218.732 69.4456 218.614 69.5748 218.471 69.6932C218.331 69.8116 218.163 69.9058 217.967 69.9758C217.77 70.0458 217.541 70.0807 217.28 70.0807ZM221.483 69.6649C221.687 69.6649 221.878 69.6273 222.056 69.5519C222.236 69.4739 222.384 69.3595 222.5 69.2088C222.619 69.0554 222.686 68.8683 222.702 68.6476H223.162C223.149 68.9248 223.064 69.1724 222.908 69.3904C222.754 69.6057 222.553 69.7753 222.302 69.8991C222.055 70.0202 221.782 70.0807 221.483 70.0807C221.179 70.0807 220.91 70.0256 220.675 69.9152C220.444 69.8049 220.25 69.6515 220.094 69.455C219.938 69.2559 219.82 69.0244 219.739 68.7607C219.661 68.4942 219.622 68.2076 219.622 67.9008V67.7313C219.622 67.4245 219.661 67.1392 219.739 66.8754C219.82 66.609 219.938 66.3776 220.094 66.1811C220.25 65.9819 220.444 65.8272 220.675 65.7169C220.907 65.6065 221.175 65.5513 221.479 65.5513C221.791 65.5513 222.071 65.6146 222.318 65.7411C222.569 65.8676 222.768 66.0465 222.916 66.278C223.067 66.5094 223.149 66.7839 223.162 67.1015H222.702C222.689 66.8674 222.627 66.6655 222.516 66.496C222.406 66.3264 222.261 66.1959 222.08 66.1044C221.9 66.0129 221.699 65.9671 221.479 65.9671C221.231 65.9671 221.02 66.0156 220.845 66.1125C220.67 66.2067 220.527 66.3372 220.417 66.5041C220.309 66.6682 220.23 66.8566 220.179 67.0692C220.128 67.2791 220.102 67.4998 220.102 67.7313V67.9008C220.102 68.135 220.126 68.3583 220.175 68.5709C220.226 68.7809 220.305 68.9679 220.413 69.1321C220.523 69.2962 220.666 69.4268 220.841 69.5236C221.019 69.6178 221.233 69.6649 221.483 69.6649ZM225.786 65.6321V66.0277H223.598V65.6321H225.786ZM224.402 64.5098H224.882V68.9383C224.882 69.1401 224.909 69.2922 224.963 69.3945C225.016 69.4967 225.086 69.5654 225.173 69.6003C225.259 69.6353 225.352 69.6528 225.451 69.6528C225.524 69.6528 225.594 69.6488 225.661 69.6407C225.728 69.63 225.789 69.6192 225.843 69.6084L225.863 70.0161C225.804 70.035 225.727 70.0498 225.633 70.0606C225.539 70.074 225.444 70.0807 225.35 70.0807C225.164 70.0807 225 70.0471 224.858 69.9798C224.715 69.9098 224.603 69.7914 224.523 69.6246C224.442 69.455 224.402 69.2249 224.402 68.9343V64.5098ZM229.456 69.2168V66.9643C229.456 66.757 229.413 66.5781 229.327 66.4273C229.24 66.2766 229.114 66.1609 228.947 66.0802C228.78 65.9994 228.574 65.9591 228.329 65.9591C228.103 65.9591 227.901 65.9994 227.724 66.0802C227.549 66.1582 227.41 66.2645 227.308 66.3991C227.208 66.531 227.159 66.6776 227.159 66.8391L226.674 66.8351C226.674 66.6709 226.715 66.5121 226.795 66.3587C226.876 66.2053 226.99 66.0681 227.139 65.947C227.287 65.8259 227.463 65.7303 227.667 65.6603C227.875 65.5877 228.102 65.5513 228.35 65.5513C228.662 65.5513 228.936 65.6038 229.173 65.7088C229.413 65.8137 229.6 65.9712 229.734 66.1811C229.869 66.391 229.936 66.6548 229.936 66.9723V69.0836C229.936 69.2343 229.947 69.3904 229.968 69.5519C229.993 69.7134 230.026 69.8466 230.069 69.9516V70H229.557C229.524 69.9031 229.499 69.782 229.48 69.6367C229.464 69.4887 229.456 69.3487 229.456 69.2168ZM229.569 67.4568L229.577 67.8282H228.628C228.381 67.8282 228.158 67.851 227.962 67.8968C227.768 67.9398 227.604 68.0044 227.47 68.0905C227.335 68.174 227.231 68.2749 227.159 68.3933C227.089 68.5117 227.054 68.6463 227.054 68.797C227.054 68.9531 227.093 69.0957 227.171 69.2249C227.252 69.3541 227.365 69.4577 227.51 69.5358C227.658 69.6111 227.833 69.6488 228.035 69.6488C228.304 69.6488 228.541 69.599 228.745 69.4994C228.952 69.3998 229.123 69.2693 229.258 69.1078C229.392 68.9464 229.483 68.7701 229.528 68.579L229.738 68.8576C229.703 68.9921 229.639 69.1307 229.544 69.2734C229.453 69.4133 229.333 69.5452 229.185 69.669C229.037 69.7901 228.862 69.8897 228.66 69.9677C228.461 70.0431 228.235 70.0807 227.982 70.0807C227.697 70.0807 227.448 70.0269 227.235 69.9193C227.025 69.8116 226.861 69.6649 226.743 69.4792C226.627 69.2909 226.569 69.0782 226.569 68.8414C226.569 68.6261 226.615 68.4337 226.707 68.2641C226.798 68.0919 226.93 67.9466 227.102 67.8282C227.277 67.707 227.487 67.6155 227.732 67.5536C227.98 67.4891 228.257 67.4568 228.564 67.4568H229.569ZM234.538 69.5358L235.939 65.6321H236.435L234.801 70H234.449L234.538 69.5358ZM233.271 65.6321L234.688 69.5479L234.764 70H234.409L232.77 65.6321H233.271ZM236.9 67.8847V67.7515C236.9 67.4339 236.945 67.1405 237.037 66.8714C237.128 66.6023 237.259 66.3695 237.429 66.173C237.601 65.9766 237.807 65.8245 238.046 65.7169C238.286 65.6065 238.552 65.5513 238.846 65.5513C239.142 65.5513 239.409 65.6065 239.649 65.7169C239.888 65.8245 240.094 65.9766 240.266 66.173C240.439 66.3695 240.571 66.6023 240.662 66.8714C240.754 67.1405 240.799 67.4339 240.799 67.7515V67.8847C240.799 68.2022 240.754 68.4956 240.662 68.7647C240.571 69.0311 240.439 69.2626 240.266 69.4591C240.097 69.6555 239.892 69.8089 239.653 69.9193C239.413 70.0269 239.147 70.0807 238.854 70.0807C238.558 70.0807 238.29 70.0269 238.05 69.9193C237.811 69.8089 237.605 69.6555 237.433 69.4591C237.26 69.2626 237.128 69.0311 237.037 68.7647C236.945 68.4956 236.9 68.2022 236.9 67.8847ZM237.38 67.7515V67.8847C237.38 68.1242 237.412 68.3516 237.477 68.5669C237.542 68.7795 237.636 68.9692 237.76 69.1361C237.883 69.3003 238.037 69.4295 238.22 69.5236C238.403 69.6178 238.614 69.6649 238.854 69.6649C239.09 69.6649 239.299 69.6178 239.479 69.5236C239.662 69.4295 239.816 69.3003 239.94 69.1361C240.063 68.9692 240.156 68.7795 240.218 68.5669C240.283 68.3516 240.315 68.1242 240.315 67.8847V67.7515C240.315 67.5146 240.283 67.2899 240.218 67.0773C240.156 66.8647 240.062 66.6749 239.935 66.5081C239.812 66.3412 239.658 66.2094 239.475 66.1125C239.292 66.0156 239.082 65.9671 238.846 65.9671C238.609 65.9671 238.399 66.0156 238.216 66.1125C238.035 66.2094 237.882 66.3412 237.756 66.5081C237.632 66.6749 237.538 66.8647 237.473 67.0773C237.411 67.2899 237.38 67.5146 237.38 67.7515ZM243.411 69.6649C243.616 69.6649 243.807 69.6273 243.984 69.5519C244.165 69.4739 244.313 69.3595 244.429 69.2088C244.547 69.0554 244.614 68.8683 244.63 68.6476H245.091C245.077 68.9248 244.992 69.1724 244.836 69.3904C244.683 69.6057 244.481 69.7753 244.231 69.8991C243.983 70.0202 243.71 70.0807 243.411 70.0807C243.107 70.0807 242.838 70.0256 242.604 69.9152C242.372 69.8049 242.179 69.6515 242.023 69.455C241.866 69.2559 241.748 69.0244 241.667 68.7607C241.589 68.4942 241.55 68.2076 241.55 67.9008V67.7313C241.55 67.4245 241.589 67.1392 241.667 66.8754C241.748 66.609 241.866 66.3776 242.023 66.1811C242.179 65.9819 242.372 65.8272 242.604 65.7169C242.835 65.6065 243.103 65.5513 243.407 65.5513C243.719 65.5513 243.999 65.6146 244.247 65.7411C244.497 65.8676 244.696 66.0465 244.844 66.278C244.995 66.5094 245.077 66.7839 245.091 67.1015H244.63C244.617 66.8674 244.555 66.6655 244.445 66.496C244.334 66.3264 244.189 66.1959 244.009 66.1044C243.828 66.0129 243.628 65.9671 243.407 65.9671C243.16 65.9671 242.948 66.0156 242.773 66.1125C242.598 66.2067 242.456 66.3372 242.345 66.5041C242.238 66.6682 242.158 66.8566 242.107 67.0692C242.056 67.2791 242.031 67.4998 242.031 67.7313V67.9008C242.031 68.135 242.055 68.3583 242.103 68.5709C242.154 68.7809 242.234 68.9679 242.341 69.1321C242.452 69.2962 242.594 69.4268 242.769 69.5236C242.947 69.6178 243.161 69.6649 243.411 69.6649ZM247.751 70.0807C247.466 70.0807 247.203 70.0283 246.964 69.9233C246.727 69.8183 246.52 69.6703 246.342 69.4792C246.167 69.2882 246.031 69.0621 245.934 68.801C245.84 68.5373 245.793 68.2493 245.793 67.9371V67.7636C245.793 67.4272 245.843 67.123 245.942 66.8512C246.042 66.5794 246.179 66.3466 246.354 66.1528C246.529 65.9591 246.728 65.8111 246.952 65.7088C247.178 65.6038 247.414 65.5513 247.662 65.5513C247.939 65.5513 248.186 65.6011 248.401 65.7007C248.616 65.7976 248.796 65.9362 248.942 66.1165C249.09 66.2941 249.201 66.5054 249.277 66.7503C249.352 66.9925 249.39 67.2603 249.39 67.5536V67.8483H246.084V67.4366H248.909V67.3801C248.904 67.1352 248.854 66.9064 248.76 66.6938C248.669 66.4785 248.531 66.3036 248.348 66.169C248.165 66.0344 247.937 65.9671 247.662 65.9671C247.458 65.9671 247.269 66.0102 247.097 66.0963C246.927 66.1824 246.781 66.3062 246.657 66.4677C246.536 66.6265 246.442 66.8162 246.374 67.0369C246.31 67.2549 246.277 67.4971 246.277 67.7636V67.9371C246.277 68.1794 246.312 68.4054 246.382 68.6153C246.455 68.8226 246.557 69.0056 246.689 69.1644C246.824 69.3231 246.983 69.4469 247.166 69.5358C247.349 69.6246 247.55 69.669 247.771 69.669C248.029 69.669 248.258 69.6219 248.457 69.5277C248.656 69.4308 248.835 69.2787 248.994 69.0715L249.297 69.3057C249.203 69.4456 249.084 69.5748 248.942 69.6932C248.802 69.8116 248.634 69.9058 248.437 69.9758C248.241 70.0458 248.012 70.0807 247.751 70.0807ZM247.868 63.8437L248.841 64.8812V64.9216H248.393L247.715 64.1869L247.04 64.9216H246.604V64.8731L247.561 63.8437H247.868ZM255.017 69.2168V66.9643C255.017 66.757 254.974 66.5781 254.888 66.4273C254.802 66.2766 254.676 66.1609 254.509 66.0802C254.342 65.9994 254.136 65.9591 253.891 65.9591C253.665 65.9591 253.463 65.9994 253.285 66.0802C253.111 66.1582 252.972 66.2645 252.87 66.3991C252.77 66.531 252.72 66.6776 252.72 66.8391L252.236 66.8351C252.236 66.6709 252.276 66.5121 252.357 66.3587C252.438 66.2053 252.552 66.0681 252.7 65.947C252.848 65.8259 253.024 65.7303 253.229 65.6603C253.436 65.5877 253.664 65.5513 253.911 65.5513C254.223 65.5513 254.498 65.6038 254.735 65.7088C254.974 65.8137 255.161 65.9712 255.296 66.1811C255.43 66.391 255.498 66.6548 255.498 66.9723V69.0836C255.498 69.2343 255.508 69.3904 255.53 69.5519C255.554 69.7134 255.588 69.8466 255.631 69.9516V70H255.118C255.086 69.9031 255.06 69.782 255.042 69.6367C255.025 69.4887 255.017 69.3487 255.017 69.2168ZM255.13 67.4568L255.138 67.8282H254.19C253.942 67.8282 253.72 67.851 253.524 67.8968C253.33 67.9398 253.166 68.0044 253.031 68.0905C252.897 68.174 252.793 68.2749 252.72 68.3933C252.65 68.5117 252.615 68.6463 252.615 68.797C252.615 68.9531 252.654 69.0957 252.732 69.2249C252.813 69.3541 252.926 69.4577 253.072 69.5358C253.22 69.6111 253.394 69.6488 253.596 69.6488C253.865 69.6488 254.102 69.599 254.307 69.4994C254.514 69.3998 254.685 69.2693 254.819 69.1078C254.954 68.9464 255.044 68.7701 255.09 68.579L255.3 68.8576C255.265 68.9921 255.2 69.1307 255.106 69.2734C255.015 69.4133 254.895 69.5452 254.747 69.669C254.599 69.7901 254.424 69.8897 254.222 69.9677C254.023 70.0431 253.797 70.0807 253.544 70.0807C253.259 70.0807 253.01 70.0269 252.797 69.9193C252.587 69.8116 252.423 69.6649 252.305 69.4792C252.189 69.2909 252.131 69.0782 252.131 68.8414C252.131 68.6261 252.177 68.4337 252.268 68.2641C252.36 68.0919 252.492 67.9466 252.664 67.8282C252.839 67.707 253.049 67.6155 253.294 67.5536C253.541 67.4891 253.818 67.4568 254.125 67.4568H255.13ZM256.527 67.8847V67.7515C256.527 67.4339 256.573 67.1405 256.664 66.8714C256.756 66.6023 256.886 66.3695 257.056 66.173C257.228 65.9766 257.434 65.8245 257.674 65.7169C257.913 65.6065 258.18 65.5513 258.473 65.5513C258.769 65.5513 259.037 65.6065 259.276 65.7169C259.516 65.8245 259.722 65.9766 259.894 66.173C260.066 66.3695 260.198 66.6023 260.289 66.8714C260.381 67.1405 260.427 67.4339 260.427 67.7515V67.8847C260.427 68.2022 260.381 68.4956 260.289 68.7647C260.198 69.0311 260.066 69.2626 259.894 69.4591C259.724 69.6555 259.52 69.8089 259.28 69.9193C259.041 70.0269 258.774 70.0807 258.481 70.0807C258.185 70.0807 257.917 70.0269 257.678 69.9193C257.438 69.8089 257.232 69.6555 257.06 69.4591C256.888 69.2626 256.756 69.0311 256.664 68.7647C256.573 68.4956 256.527 68.2022 256.527 67.8847ZM257.007 67.7515V67.8847C257.007 68.1242 257.04 68.3516 257.104 68.5669C257.169 68.7795 257.263 68.9692 257.387 69.1361C257.511 69.3003 257.664 69.4295 257.847 69.5236C258.03 69.6178 258.241 69.6649 258.481 69.6649C258.718 69.6649 258.926 69.6178 259.107 69.5236C259.29 69.4295 259.443 69.3003 259.567 69.1361C259.691 68.9692 259.784 68.7795 259.845 68.5669C259.91 68.3516 259.942 68.1242 259.942 67.8847V67.7515C259.942 67.5146 259.91 67.2899 259.845 67.0773C259.784 66.8647 259.689 66.6749 259.563 66.5081C259.439 66.3412 259.286 66.2094 259.103 66.1125C258.92 66.0156 258.71 65.9671 258.473 65.9671C258.236 65.9671 258.026 66.0156 257.843 66.1125C257.663 66.2094 257.509 66.3412 257.383 66.5081C257.259 66.6749 257.165 66.8647 257.1 67.0773C257.038 67.2899 257.007 67.5146 257.007 67.7515ZM266.062 68.8858C266.062 68.7674 266.033 68.6503 265.973 68.5346C265.914 68.4189 265.8 68.3126 265.63 68.2157C265.463 68.1188 265.217 68.0367 264.892 67.9694C264.649 67.9156 264.433 67.8551 264.242 67.7878C264.053 67.7205 263.894 67.6398 263.765 67.5456C263.636 67.4514 263.538 67.3383 263.471 67.2065C263.403 67.0746 263.37 66.9185 263.37 66.7382C263.37 66.5767 263.405 66.4247 263.475 66.282C263.547 66.1367 263.65 66.0102 263.781 65.9026C263.916 65.7922 264.077 65.7061 264.266 65.6442C264.457 65.5823 264.671 65.5513 264.908 65.5513C265.244 65.5513 265.532 65.6092 265.772 65.7249C266.014 65.838 266.198 65.9927 266.325 66.1892C266.454 66.3856 266.518 66.6077 266.518 66.8553H266.038C266.038 66.7045 265.994 66.5619 265.905 66.4273C265.819 66.2928 265.691 66.1824 265.521 66.0963C265.354 66.0102 265.15 65.9671 264.908 65.9671C264.657 65.9671 264.454 66.0048 264.298 66.0802C264.142 66.1555 264.028 66.2511 263.955 66.3668C263.885 66.4825 263.85 66.6023 263.85 66.7261C263.85 66.823 263.865 66.9118 263.894 66.9925C263.927 67.0706 263.983 67.1432 264.064 67.2105C264.147 67.2778 264.266 67.341 264.419 67.4002C264.573 67.4594 264.772 67.5173 265.017 67.5738C265.369 67.6519 265.657 67.7474 265.881 67.8604C266.107 67.9708 266.274 68.108 266.381 68.2722C266.489 68.4337 266.543 68.6301 266.543 68.8616C266.543 69.0419 266.505 69.2074 266.43 69.3581C266.354 69.5062 266.245 69.634 266.103 69.7416C265.963 69.8493 265.793 69.9327 265.594 69.9919C265.398 70.0511 265.177 70.0807 264.932 70.0807C264.563 70.0807 264.251 70.0202 263.995 69.8991C263.742 69.7753 263.55 69.6138 263.418 69.4147C263.289 69.2128 263.224 68.9989 263.224 68.7728H263.705C263.721 68.9989 263.792 69.1778 263.919 69.3097C264.045 69.4389 264.2 69.5304 264.383 69.5842C264.569 69.638 264.752 69.6649 264.932 69.6649C265.18 69.6649 265.387 69.6286 265.554 69.5559C265.72 69.4833 265.847 69.3877 265.933 69.2693C266.019 69.1509 266.062 69.0231 266.062 68.8858ZM269.324 70.0807C269.039 70.0807 268.776 70.0283 268.537 69.9233C268.3 69.8183 268.093 69.6703 267.915 69.4792C267.74 69.2882 267.604 69.0621 267.507 68.801C267.413 68.5373 267.366 68.2493 267.366 67.9371V67.7636C267.366 67.4272 267.416 67.123 267.516 66.8512C267.615 66.5794 267.752 66.3466 267.927 66.1528C268.102 65.9591 268.301 65.8111 268.525 65.7088C268.751 65.6038 268.988 65.5513 269.235 65.5513C269.512 65.5513 269.759 65.6011 269.974 65.7007C270.189 65.7976 270.37 65.9362 270.515 66.1165C270.663 66.2941 270.775 66.5054 270.85 66.7503C270.925 66.9925 270.963 67.2603 270.963 67.5536V67.8483H267.657V67.4366H270.483V67.3801C270.477 67.1352 270.427 66.9064 270.333 66.6938C270.242 66.4785 270.105 66.3036 269.922 66.169C269.739 66.0344 269.51 65.9671 269.235 65.9671C269.031 65.9671 268.842 66.0102 268.67 66.0963C268.501 66.1824 268.354 66.3062 268.23 66.4677C268.109 66.6265 268.015 66.8162 267.947 67.0369C267.883 67.2549 267.851 67.4971 267.851 67.7636V67.9371C267.851 68.1794 267.886 68.4054 267.956 68.6153C268.028 68.8226 268.13 69.0056 268.262 69.1644C268.397 69.3231 268.556 69.4469 268.739 69.5358C268.922 69.6246 269.124 69.669 269.344 69.669C269.603 69.669 269.831 69.6219 270.031 69.5277C270.23 69.4308 270.409 69.2787 270.567 69.0715L270.87 69.3057C270.776 69.4456 270.658 69.5748 270.515 69.6932C270.375 69.8116 270.207 69.9058 270.01 69.9758C269.814 70.0458 269.585 70.0807 269.324 70.0807ZM274.713 68.9908V65.6321H275.198V70H274.733L274.713 68.9908ZM274.802 68.1834L275.052 68.1753C275.052 68.4498 275.02 68.7028 274.956 68.9343C274.891 69.1657 274.79 69.3676 274.653 69.5398C274.515 69.712 274.338 69.8453 274.12 69.9394C273.902 70.0336 273.639 70.0807 273.333 70.0807C273.12 70.0807 272.925 70.0511 272.747 69.9919C272.572 69.93 272.422 69.8331 272.295 69.7013C272.169 69.5694 272.07 69.3985 272.001 69.1886C271.933 68.9787 271.9 68.7243 271.9 68.4256V65.6321H272.38V68.4337C272.38 68.6678 272.406 68.8629 272.457 69.019C272.51 69.1751 272.583 69.3003 272.675 69.3945C272.769 69.4887 272.877 69.5559 272.998 69.5963C273.119 69.6367 273.249 69.6569 273.389 69.6569C273.744 69.6569 274.024 69.5882 274.229 69.451C274.436 69.3137 274.583 69.1334 274.669 68.91C274.758 68.684 274.802 68.4418 274.802 68.1834ZM278.96 66.5646V70H278.48V65.6321H278.94L278.96 66.5646ZM278.851 67.5456L278.637 67.4245C278.653 67.1661 278.706 66.9239 278.795 66.6978C278.883 66.4718 279.003 66.2726 279.154 66.1004C279.307 65.9281 279.486 65.7936 279.691 65.6967C279.898 65.5998 280.127 65.5513 280.377 65.5513C280.595 65.5513 280.79 65.5809 280.962 65.6402C281.135 65.6994 281.281 65.7936 281.402 65.9227C281.524 66.0519 281.615 66.2174 281.677 66.4193C281.742 66.6211 281.774 66.8674 281.774 67.158V70H281.289V67.154C281.289 66.8526 281.248 66.6171 281.164 66.4475C281.081 66.2753 280.962 66.1528 280.809 66.0802C280.656 66.0075 280.474 65.9712 280.264 65.9712C280.033 65.9712 279.829 66.0223 279.654 66.1246C279.482 66.2242 279.337 66.3547 279.218 66.5162C279.103 66.6749 279.014 66.8458 278.952 67.0288C278.89 67.2092 278.857 67.3814 278.851 67.5456ZM282.759 67.8847V67.7515C282.759 67.4339 282.805 67.1405 282.896 66.8714C282.988 66.6023 283.118 66.3695 283.288 66.173C283.46 65.9766 283.666 65.8245 283.905 65.7169C284.145 65.6065 284.411 65.5513 284.705 65.5513C285.001 65.5513 285.268 65.6065 285.508 65.7169C285.747 65.8245 285.953 65.9766 286.126 66.173C286.298 66.3695 286.43 66.6023 286.521 66.8714C286.613 67.1405 286.658 67.4339 286.658 67.7515V67.8847C286.658 68.2022 286.613 68.4956 286.521 68.7647C286.43 69.0311 286.298 69.2626 286.126 69.4591C285.956 69.6555 285.752 69.8089 285.512 69.9193C285.272 70.0269 285.006 70.0807 284.713 70.0807C284.417 70.0807 284.149 70.0269 283.909 69.9193C283.67 69.8089 283.464 69.6555 283.292 69.4591C283.119 69.2626 282.988 69.0311 282.896 68.7647C282.805 68.4956 282.759 68.2022 282.759 67.8847ZM283.239 67.7515V67.8847C283.239 68.1242 283.272 68.3516 283.336 68.5669C283.401 68.7795 283.495 68.9692 283.619 69.1361C283.742 69.3003 283.896 69.4295 284.079 69.5236C284.262 69.6178 284.473 69.6649 284.713 69.6649C284.95 69.6649 285.158 69.6178 285.338 69.5236C285.521 69.4295 285.675 69.3003 285.799 69.1361C285.922 68.9692 286.015 68.7795 286.077 68.5669C286.142 68.3516 286.174 68.1242 286.174 67.8847V67.7515C286.174 67.5146 286.142 67.2899 286.077 67.0773C286.015 66.8647 285.921 66.6749 285.795 66.5081C285.671 66.3412 285.517 66.2094 285.334 66.1125C285.151 66.0156 284.941 65.9671 284.705 65.9671C284.468 65.9671 284.258 66.0156 284.075 66.1125C283.895 66.2094 283.741 66.3412 283.615 66.5081C283.491 66.6749 283.397 66.8647 283.332 67.0773C283.27 67.2899 283.239 67.5146 283.239 67.7515ZM288.883 69.5358L290.284 65.6321H290.78L289.145 70H288.794L288.883 69.5358ZM287.615 65.6321L289.032 69.5479L289.109 70H288.754L287.115 65.6321H287.615ZM291.244 67.8847V67.7515C291.244 67.4339 291.29 67.1405 291.382 66.8714C291.473 66.6023 291.604 66.3695 291.773 66.173C291.945 65.9766 292.151 65.8245 292.391 65.7169C292.63 65.6065 292.897 65.5513 293.19 65.5513C293.486 65.5513 293.754 65.6065 293.994 65.7169C294.233 65.8245 294.439 65.9766 294.611 66.173C294.783 66.3695 294.915 66.6023 295.007 66.8714C295.098 67.1405 295.144 67.4339 295.144 67.7515V67.8847C295.144 68.2022 295.098 68.4956 295.007 68.7647C294.915 69.0311 294.783 69.2626 294.611 69.4591C294.442 69.6555 294.237 69.8089 293.998 69.9193C293.758 70.0269 293.492 70.0807 293.198 70.0807C292.902 70.0807 292.634 70.0269 292.395 69.9193C292.155 69.8089 291.949 69.6555 291.777 69.4591C291.605 69.2626 291.473 69.0311 291.382 68.7647C291.29 68.4956 291.244 68.2022 291.244 67.8847ZM291.725 67.7515V67.8847C291.725 68.1242 291.757 68.3516 291.822 68.5669C291.886 68.7795 291.98 68.9692 292.104 69.1361C292.228 69.3003 292.381 69.4295 292.564 69.5236C292.747 69.6178 292.959 69.6649 293.198 69.6649C293.435 69.6649 293.644 69.6178 293.824 69.5236C294.007 69.4295 294.16 69.3003 294.284 69.1361C294.408 68.9692 294.501 68.7795 294.563 68.5669C294.627 68.3516 294.66 68.1242 294.66 67.8847V67.7515C294.66 67.5146 294.627 67.2899 294.563 67.0773C294.501 66.8647 294.407 66.6749 294.28 66.5081C294.156 66.3412 294.003 66.2094 293.82 66.1125C293.637 66.0156 293.427 65.9671 293.19 65.9671C292.953 65.9671 292.743 66.0156 292.56 66.1125C292.38 66.2094 292.227 66.3412 292.1 66.5081C291.976 66.6749 291.882 66.8647 291.818 67.0773C291.756 67.2899 291.725 67.5146 291.725 67.7515ZM298.701 63.7993V70H298.22V63.7993H298.701ZM302.677 69.2168V66.9643C302.677 66.757 302.634 66.5781 302.548 66.4273C302.462 66.2766 302.335 66.1609 302.168 66.0802C302.001 65.9994 301.795 65.9591 301.551 65.9591C301.325 65.9591 301.123 65.9994 300.945 66.0802C300.77 66.1582 300.632 66.2645 300.529 66.3991C300.43 66.531 300.38 66.6776 300.38 66.8391L299.895 66.8351C299.895 66.6709 299.936 66.5121 300.017 66.3587C300.097 66.2053 300.212 66.0681 300.36 65.947C300.508 65.8259 300.684 65.7303 300.889 65.6603C301.096 65.5877 301.323 65.5513 301.571 65.5513C301.883 65.5513 302.157 65.6038 302.394 65.7088C302.634 65.8137 302.821 65.9712 302.955 66.1811C303.09 66.391 303.157 66.6548 303.157 66.9723V69.0836C303.157 69.2343 303.168 69.3904 303.19 69.5519C303.214 69.7134 303.247 69.8466 303.29 69.9516V70H302.778C302.745 69.9031 302.72 69.782 302.701 69.6367C302.685 69.4887 302.677 69.3487 302.677 69.2168ZM302.79 67.4568L302.798 67.8282H301.849C301.602 67.8282 301.38 67.851 301.183 67.8968C300.989 67.9398 300.825 68.0044 300.691 68.0905C300.556 68.174 300.453 68.2749 300.38 68.3933C300.31 68.5117 300.275 68.6463 300.275 68.797C300.275 68.9531 300.314 69.0957 300.392 69.2249C300.473 69.3541 300.586 69.4577 300.731 69.5358C300.879 69.6111 301.054 69.6488 301.256 69.6488C301.525 69.6488 301.762 69.599 301.966 69.4994C302.174 69.3998 302.344 69.2693 302.479 69.1078C302.614 68.9464 302.704 68.7701 302.75 68.579L302.959 68.8576C302.924 68.9921 302.86 69.1307 302.766 69.2734C302.674 69.4133 302.554 69.5452 302.406 69.669C302.258 69.7901 302.083 69.8897 301.882 69.9677C301.682 70.0431 301.456 70.0807 301.203 70.0807C300.918 70.0807 300.669 70.0269 300.457 69.9193C300.247 69.8116 300.082 69.6649 299.964 69.4792C299.848 69.2909 299.79 69.0782 299.79 68.8414C299.79 68.6261 299.836 68.4337 299.928 68.2641C300.019 68.0919 300.151 67.9466 300.323 67.8282C300.498 67.707 300.708 67.6155 300.953 67.5536C301.201 67.4891 301.478 67.4568 301.785 67.4568H302.79ZM304.933 66.3547V70H304.453V65.6321H304.921L304.933 66.3547ZM306.48 65.5998L306.468 66.0438C306.414 66.0358 306.361 66.029 306.31 66.0237C306.259 66.0183 306.204 66.0156 306.145 66.0156C305.935 66.0156 305.75 66.0546 305.592 66.1327C305.435 66.208 305.304 66.3143 305.196 66.4516C305.088 66.5861 305.006 66.7449 304.95 66.9279C304.893 67.1082 304.861 67.302 304.853 67.5092L304.675 67.5779C304.675 67.2926 304.705 67.0275 304.764 66.7826C304.823 66.5377 304.913 66.3237 305.034 66.1407C305.158 65.955 305.313 65.8111 305.499 65.7088C305.687 65.6038 305.908 65.5513 306.161 65.5513C306.223 65.5513 306.283 65.5567 306.342 65.5675C306.404 65.5756 306.45 65.5863 306.48 65.5998Z" fill="#56C7E1"/>
</g>
<defs>
<filter id="filter0_d_4_175" x="0" y="0" width="317.469" height="96" filterUnits="userSpaceOnUse" color-interpolation-filters="sRGB">
<feFlood flood-opacity="0" result="BackgroundImageFix"/>
<feColorMatrix in="SourceAlpha" type="matrix" values="0 0 0 0 0 0 0 0 0 0 0 0 0 0 0 0 0 0 127 0" result="hardAlpha"/>
<feOffset dy="2"/>
<feGaussianBlur stdDeviation="4"/>
<feComposite in2="hardAlpha" operator="out"/>
<feColorMatrix type="matrix" values="0 0 0 0 0 0 0 0 0 0 0 0 0 0 0 0 0 0 0.25 0"/>
<feBlend mode="normal" in2="BackgroundImageFix" result="effect1_dropShadow_4_175"/>
<feBlend mode="normal" in="SourceGraphic" in2="effect1_dropShadow_4_175" result="shape"/>
</filter>
</defs>
</svg>
