<svg width="540" height="144" viewBox="0 0 540 144" fill="none" xmlns="http://www.w3.org/2000/svg">
<circle cx="71.6491" cy="72" r="71.6491" fill="white"/>
<path d="M100.906 30.2046H59.1105C54.5005 30.2046 50.7514 33.9536 50.7514 38.5637V61.9105L31.0784 81.5836C30.494 82.1681 30.0961 82.9127 29.9349 83.7234C29.7737 84.534 29.8565 85.3742 30.1728 86.1378C30.489 86.9014 31.0246 87.5541 31.7118 88.0134C32.3989 88.4726 33.2068 88.7179 34.0333 88.718V109.616C34.0333 110.724 34.4737 111.787 35.2575 112.571C36.0413 113.355 37.1044 113.795 38.2128 113.795H105.085C106.194 113.795 107.257 113.355 108.041 112.571C108.825 111.787 109.265 110.724 109.265 109.616V38.5637C109.265 33.9536 105.516 30.2046 100.906 30.2046ZM67.4696 105.436H42.3924V82.0893L54.931 69.5507L67.4696 82.0893V105.436ZM100.906 105.436H75.8286V88.718C76.656 88.7199 77.4653 88.4758 78.1538 88.0169C78.8422 87.558 79.3788 86.9048 79.6954 86.1404C80.0121 85.376 80.0944 84.5347 79.932 83.7234C79.7697 82.9121 79.37 82.1673 78.7836 81.5836L59.1105 61.9105V38.5637H100.906V105.436Z" fill="#FF6F3C"/>
<path d="M67.4695 46.9229H75.8286V55.2819H67.4695V46.9229ZM84.1877 46.9229H92.5467V55.2819H84.1877V46.9229ZM84.1877 63.7705H92.5467V72H84.1877V63.7705ZM84.1877 80.3591H92.5467V88.7182H84.1877V80.3591ZM50.7514 84.5386H59.1105V92.8977H50.7514V84.5386Z" fill="#FF6F3C"/>
<path d="M509.141 98.5101V46.2062H517.928V52.7442C519.776 50.3033 522.112 48.3681 524.936 46.9385C527.761 45.474 530.829 44.7417 534.142 44.7417C536.164 44.7417 538.117 45.0032 540 45.5263L536.443 54.3133C535.014 53.86 533.619 53.6334 532.259 53.6334C529.644 53.6334 527.238 54.2784 525.041 55.5686C522.879 56.8239 521.153 58.5325 519.863 60.6944C518.573 62.8563 517.928 65.2623 517.928 67.9123V98.5101H509.141Z" fill="white"/>
<path d="M484.669 46.2062H493.456V98.5101H484.669L484.303 89.6707C482.664 92.7043 480.398 95.1626 477.503 97.0456C474.644 98.9285 471.227 99.87 467.252 99.87C463.416 99.87 459.825 99.1552 456.477 97.7255C453.13 96.261 450.166 94.256 447.586 91.7106C445.04 89.1302 443.053 86.1664 441.623 82.8189C440.193 79.4715 439.478 75.8625 439.478 71.992C439.478 68.261 440.176 64.7392 441.571 61.4266C442.965 58.1141 444.901 55.2199 447.376 52.7442C449.887 50.2336 452.781 48.2809 456.059 46.8862C459.337 45.4565 462.858 44.7417 466.624 44.7417C470.739 44.7417 474.348 45.718 477.451 47.6707C480.554 49.5885 483.065 52.0817 484.983 55.1502L484.669 46.2062ZM467.095 91.3444C470.547 91.3444 473.528 90.5076 476.039 88.8339C478.584 87.1253 480.537 84.8239 481.897 81.9297C483.292 79.0356 483.989 75.8451 483.989 72.3581C483.989 68.8015 483.292 65.5935 481.897 62.7342C480.502 59.8401 478.532 57.5561 475.987 55.8824C473.476 54.1738 470.512 53.3195 467.095 53.3195C463.643 53.3195 460.505 54.1738 457.68 55.8824C454.856 57.591 452.607 59.8924 450.933 62.7865C449.294 65.6458 448.475 68.8363 448.475 72.3581C448.475 75.8799 449.329 79.0879 451.038 81.9821C452.746 84.8413 455.013 87.1253 457.837 88.8339C460.662 90.5076 463.747 91.3444 467.095 91.3444Z" fill="white"/>
<path d="M429.338 54.9933H417.465L417.413 98.5101H408.626L408.678 54.9933H399.682V46.2063H408.678L408.626 29.7828H417.413L417.465 46.2063H429.338V54.9933Z" fill="white"/>
<path d="M375.664 46.2063H384.451V98.5102H375.664V46.2063ZM380.162 37.6808C378.767 37.6808 377.599 37.2275 376.657 36.3209C375.716 35.4143 375.245 34.2811 375.245 32.9212C375.245 31.5612 375.716 30.428 376.657 29.5214C377.599 28.6148 378.75 28.1615 380.109 28.1615C381.469 28.1615 382.62 28.6148 383.562 29.5214C384.503 30.428 384.974 31.5612 384.974 32.9212C384.974 34.2811 384.503 35.4143 383.562 36.3209C382.655 37.2275 381.522 37.6808 380.162 37.6808Z" fill="white"/>
<path d="M334.89 44.7418C339.981 44.7418 344.601 45.9796 348.751 48.4553C352.935 50.931 356.265 54.2611 358.741 58.4454C361.217 62.5948 362.454 67.215 362.454 72.3059C362.454 76.1066 361.74 79.6807 360.31 83.0282C358.88 86.3408 356.893 89.2698 354.347 91.8152C351.837 94.3258 348.908 96.2959 345.56 97.7256C342.248 99.1552 338.691 99.87 334.89 99.87C330.845 99.87 327.324 98.9286 324.325 97.0456C321.361 95.1278 318.99 92.6347 317.212 89.5662V98.5101H308.425V20.0543H317.212V55.0456C318.99 51.9771 321.361 49.5014 324.325 47.6185C327.324 45.7007 330.845 44.7418 334.89 44.7418ZM334.786 91.2922C338.238 91.2922 341.376 90.4379 344.2 88.7293C347.025 87.0207 349.274 84.7368 350.948 81.8775C352.621 78.9833 353.458 75.7928 353.458 72.3059C353.458 68.7492 352.604 65.5413 350.895 62.682C349.187 59.7878 346.92 57.5039 344.096 55.8302C341.271 54.1216 338.168 53.2673 334.786 53.2673C331.369 53.2673 328.387 54.1216 325.842 55.8302C323.331 57.5388 321.378 59.8401 319.984 62.7343C318.624 65.6284 317.944 68.819 317.944 72.3059C317.944 75.8277 318.624 79.0356 319.984 81.9298C321.378 84.7891 323.349 87.073 325.894 88.7816C328.44 90.4553 331.403 91.2922 334.786 91.2922Z" fill="white"/>
<path d="M283.34 46.2062H292.127V98.5101H283.34L282.974 89.6707C281.335 92.7043 279.068 95.1626 276.174 97.0456C273.315 98.9285 269.898 99.87 265.923 99.87C262.087 99.87 258.496 99.1552 255.148 97.7255C251.801 96.261 248.837 94.256 246.256 91.7106C243.711 89.1302 241.723 86.1664 240.294 82.8189C238.864 79.4715 238.149 75.8625 238.149 71.992C238.149 68.261 238.847 64.7392 240.242 61.4266C241.636 58.1141 243.572 55.2199 246.047 52.7442C248.558 50.2336 251.452 48.2809 254.73 46.8862C258.007 45.4565 261.529 44.7417 265.295 44.7417C269.41 44.7417 273.019 45.718 276.122 47.6707C279.225 49.5885 281.736 52.0817 283.654 55.1502L283.34 46.2062ZM265.766 91.3444C269.218 91.3444 272.199 90.5076 274.71 88.8339C277.255 87.1253 279.208 84.8239 280.568 81.9297C281.963 79.0356 282.66 75.8451 282.66 72.3581C282.66 68.8015 281.963 65.5935 280.568 62.7342C279.173 59.8401 277.203 57.5561 274.657 55.8824C272.147 54.1738 269.183 53.3195 265.766 53.3195C262.314 53.3195 259.176 54.1738 256.351 55.8824C253.527 57.591 251.278 59.8924 249.604 62.7865C247.965 65.6458 247.146 68.8363 247.146 72.3581C247.146 75.8799 248 79.0879 249.709 81.9821C251.417 84.8413 253.684 87.1253 256.508 88.8339C259.332 90.5076 262.418 91.3444 265.766 91.3444Z" fill="white"/>
<path d="M215.2 25.2849H223.987V98.5103H215.2V63.676H178.954V98.5103H170.167V25.2849H178.954V54.8889H215.2V25.2849Z" fill="white"/>
<path d="M174.961 111.76L171.316 121.66H170.391L174.368 111.131H175.011L174.961 111.76ZM178.273 121.66L174.621 111.76L174.57 111.131H175.214L179.198 121.66H178.273ZM177.622 117.943V118.709H172.032V117.943H177.622ZM187.058 121.059C187.425 121.059 187.767 120.992 188.085 120.857C188.408 120.717 188.673 120.512 188.881 120.242C189.093 119.968 189.213 119.633 189.242 119.237H190.066C190.042 119.734 189.89 120.177 189.611 120.568C189.336 120.953 188.975 121.257 188.526 121.479C188.083 121.696 187.593 121.804 187.058 121.804C186.514 121.804 186.031 121.705 185.612 121.508C185.198 121.31 184.85 121.035 184.571 120.683C184.291 120.327 184.079 119.912 183.935 119.44C183.795 118.963 183.725 118.449 183.725 117.9V117.596C183.725 117.046 183.795 116.535 183.935 116.063C184.079 115.586 184.291 115.171 184.571 114.819C184.85 114.462 185.198 114.185 185.612 113.988C186.027 113.79 186.506 113.691 187.051 113.691C187.61 113.691 188.112 113.804 188.555 114.031C189.003 114.258 189.36 114.578 189.625 114.993C189.895 115.407 190.042 115.899 190.066 116.468H189.242C189.218 116.048 189.107 115.687 188.909 115.383C188.712 115.079 188.451 114.846 188.128 114.682C187.806 114.518 187.446 114.436 187.051 114.436C186.608 114.436 186.229 114.523 185.916 114.696C185.602 114.865 185.347 115.099 185.149 115.398C184.956 115.692 184.814 116.029 184.723 116.41C184.631 116.786 184.585 117.181 184.585 117.596V117.9C184.585 118.319 184.629 118.719 184.715 119.1C184.807 119.476 184.949 119.811 185.142 120.105C185.34 120.399 185.595 120.633 185.909 120.806C186.227 120.975 186.61 121.059 187.058 121.059ZM191.332 117.871V117.632C191.332 117.063 191.414 116.538 191.578 116.056C191.742 115.574 191.975 115.157 192.279 114.805C192.588 114.453 192.956 114.18 193.385 113.988C193.814 113.79 194.292 113.691 194.817 113.691C195.347 113.691 195.827 113.79 196.256 113.988C196.685 114.18 197.054 114.453 197.362 114.805C197.671 115.157 197.907 115.574 198.071 116.056C198.235 116.538 198.317 117.063 198.317 117.632V117.871C198.317 118.439 198.235 118.965 198.071 119.447C197.907 119.924 197.671 120.339 197.362 120.691C197.059 121.043 196.692 121.317 196.263 121.515C195.834 121.708 195.357 121.804 194.832 121.804C194.301 121.804 193.822 121.708 193.393 121.515C192.964 121.317 192.595 121.043 192.286 120.691C191.978 120.339 191.742 119.924 191.578 119.447C191.414 118.965 191.332 118.439 191.332 117.871ZM192.192 117.632V117.871C192.192 118.3 192.25 118.707 192.366 119.093C192.482 119.473 192.65 119.813 192.872 120.112C193.094 120.406 193.369 120.638 193.696 120.806C194.024 120.975 194.403 121.059 194.832 121.059C195.256 121.059 195.629 120.975 195.952 120.806C196.28 120.638 196.555 120.406 196.777 120.112C196.999 119.813 197.165 119.473 197.276 119.093C197.391 118.707 197.449 118.3 197.449 117.871V117.632C197.449 117.208 197.391 116.805 197.276 116.424C197.165 116.044 196.996 115.704 196.77 115.405C196.548 115.106 196.273 114.87 195.945 114.696C195.617 114.523 195.241 114.436 194.817 114.436C194.393 114.436 194.017 114.523 193.689 114.696C193.366 114.87 193.091 115.106 192.865 115.405C192.643 115.704 192.474 116.044 192.359 116.424C192.248 116.805 192.192 117.208 192.192 117.632ZM200.971 115.13V121.66H200.11V113.836H200.949L200.971 115.13ZM203.74 113.778L203.719 114.573C203.622 114.559 203.528 114.547 203.437 114.537C203.345 114.527 203.246 114.523 203.14 114.523C202.764 114.523 202.434 114.593 202.149 114.732C201.87 114.867 201.634 115.058 201.441 115.304C201.248 115.545 201.101 115.829 201 116.157C200.898 116.48 200.841 116.827 200.826 117.198L200.508 117.321C200.508 116.81 200.561 116.335 200.667 115.897C200.773 115.458 200.935 115.075 201.152 114.747C201.373 114.414 201.65 114.156 201.983 113.973C202.321 113.785 202.716 113.691 203.169 113.691C203.28 113.691 203.388 113.701 203.494 113.72C203.605 113.734 203.687 113.754 203.74 113.778ZM205.96 115.13V121.66H205.1V113.836H205.938L205.96 115.13ZM208.73 113.778L208.708 114.573C208.611 114.559 208.517 114.547 208.426 114.537C208.334 114.527 208.235 114.523 208.129 114.523C207.753 114.523 207.423 114.593 207.139 114.732C206.859 114.867 206.623 115.058 206.43 115.304C206.237 115.545 206.09 115.829 205.989 116.157C205.888 116.48 205.83 116.827 205.816 117.198L205.497 117.321C205.497 116.81 205.55 116.335 205.656 115.897C205.762 115.458 205.924 115.075 206.141 114.747C206.363 114.414 206.64 114.156 206.972 113.973C207.31 113.785 207.705 113.691 208.158 113.691C208.269 113.691 208.378 113.701 208.484 113.72C208.595 113.734 208.677 113.754 208.73 113.778ZM212.967 121.804C212.456 121.804 211.986 121.71 211.557 121.522C211.133 121.334 210.762 121.069 210.443 120.727C210.13 120.385 209.887 119.98 209.713 119.512C209.544 119.04 209.46 118.524 209.46 117.965V117.654C209.46 117.051 209.549 116.506 209.727 116.019C209.906 115.533 210.152 115.116 210.465 114.769C210.778 114.421 211.135 114.156 211.535 113.973C211.94 113.785 212.364 113.691 212.808 113.691C213.304 113.691 213.746 113.78 214.131 113.959C214.517 114.132 214.84 114.38 215.1 114.703C215.365 115.022 215.565 115.4 215.7 115.839C215.835 116.273 215.903 116.752 215.903 117.278V117.806H209.981V117.068H215.042V116.967C215.033 116.528 214.943 116.118 214.775 115.737C214.611 115.352 214.365 115.038 214.037 114.797C213.709 114.556 213.3 114.436 212.808 114.436C212.442 114.436 212.104 114.513 211.796 114.667C211.492 114.822 211.229 115.043 211.007 115.333C210.79 115.617 210.622 115.957 210.501 116.352C210.385 116.743 210.328 117.176 210.328 117.654V117.965C210.328 118.398 210.39 118.803 210.516 119.179C210.646 119.551 210.829 119.878 211.065 120.163C211.306 120.447 211.591 120.669 211.918 120.828C212.246 120.987 212.608 121.067 213.003 121.067C213.466 121.067 213.876 120.982 214.232 120.814C214.589 120.64 214.91 120.368 215.194 119.997L215.736 120.416C215.568 120.667 215.356 120.898 215.1 121.11C214.849 121.322 214.548 121.491 214.196 121.616C213.844 121.742 213.435 121.804 212.967 121.804ZM220.567 113.836V114.544H216.648V113.836H220.567ZM218.087 111.826H218.947V119.758C218.947 120.119 218.995 120.392 219.092 120.575C219.188 120.758 219.313 120.881 219.468 120.944C219.622 121.006 219.788 121.038 219.967 121.038C220.097 121.038 220.222 121.031 220.343 121.016C220.463 120.997 220.572 120.978 220.668 120.958L220.704 121.689C220.598 121.722 220.461 121.749 220.292 121.768C220.123 121.792 219.955 121.804 219.786 121.804C219.453 121.804 219.159 121.744 218.904 121.624C218.648 121.498 218.448 121.286 218.303 120.987C218.159 120.683 218.087 120.271 218.087 119.751V111.826ZM221.76 117.871V117.632C221.76 117.063 221.842 116.538 222.006 116.056C222.17 115.574 222.403 115.157 222.707 114.805C223.016 114.453 223.384 114.18 223.813 113.988C224.242 113.79 224.72 113.691 225.245 113.691C225.775 113.691 226.255 113.79 226.684 113.988C227.113 114.18 227.482 114.453 227.791 114.805C228.099 115.157 228.335 115.574 228.499 116.056C228.663 116.538 228.745 117.063 228.745 117.632V117.871C228.745 118.439 228.663 118.965 228.499 119.447C228.335 119.924 228.099 120.339 227.791 120.691C227.487 121.043 227.12 121.317 226.691 121.515C226.262 121.708 225.785 121.804 225.26 121.804C224.729 121.804 224.25 121.708 223.821 121.515C223.392 121.317 223.023 121.043 222.714 120.691C222.406 120.339 222.17 119.924 222.006 119.447C221.842 118.965 221.76 118.439 221.76 117.871ZM222.62 117.632V117.871C222.62 118.3 222.678 118.707 222.794 119.093C222.91 119.473 223.078 119.813 223.3 120.112C223.522 120.406 223.797 120.638 224.124 120.806C224.452 120.975 224.831 121.059 225.26 121.059C225.684 121.059 226.057 120.975 226.38 120.806C226.708 120.638 226.983 120.406 227.205 120.112C227.427 119.813 227.593 119.473 227.704 119.093C227.819 118.707 227.877 118.3 227.877 117.871V117.632C227.877 117.208 227.819 116.805 227.704 116.424C227.593 116.044 227.424 115.704 227.198 115.405C226.976 115.106 226.701 114.87 226.373 114.696C226.045 114.523 225.669 114.436 225.245 114.436C224.821 114.436 224.445 114.523 224.117 114.696C223.794 114.87 223.519 115.106 223.293 115.405C223.071 115.704 222.902 116.044 222.787 116.424C222.676 116.805 222.62 117.208 222.62 117.632ZM231.399 115.13V121.66H230.538V113.836H231.377L231.399 115.13ZM234.168 113.778L234.147 114.573C234.05 114.559 233.956 114.547 233.865 114.537C233.773 114.527 233.674 114.523 233.568 114.523C233.192 114.523 232.862 114.593 232.577 114.732C232.298 114.867 232.062 115.058 231.869 115.304C231.676 115.545 231.529 115.829 231.428 116.157C231.326 116.48 231.269 116.827 231.254 117.198L230.936 117.321C230.936 116.81 230.989 116.335 231.095 115.897C231.201 115.458 231.363 115.075 231.58 114.747C231.801 114.414 232.078 114.156 232.411 113.973C232.749 113.785 233.144 113.691 233.597 113.691C233.708 113.691 233.816 113.701 233.922 113.72C234.033 113.734 234.115 113.754 234.168 113.778ZM239.996 120.257V116.222C239.996 115.851 239.919 115.53 239.765 115.26C239.611 114.99 239.384 114.783 239.085 114.638C238.786 114.494 238.418 114.421 237.979 114.421C237.574 114.421 237.212 114.494 236.894 114.638C236.581 114.778 236.333 114.969 236.15 115.21C235.971 115.446 235.882 115.709 235.882 115.998L235.014 115.991C235.014 115.697 235.087 115.412 235.231 115.137C235.376 114.863 235.581 114.617 235.846 114.4C236.111 114.183 236.427 114.012 236.793 113.886C237.164 113.756 237.572 113.691 238.015 113.691C238.574 113.691 239.066 113.785 239.49 113.973C239.919 114.161 240.254 114.443 240.495 114.819C240.736 115.195 240.857 115.668 240.857 116.236V120.018C240.857 120.288 240.876 120.568 240.915 120.857C240.958 121.146 241.018 121.385 241.096 121.573V121.66H240.177C240.119 121.486 240.074 121.269 240.04 121.009C240.011 120.744 239.996 120.493 239.996 120.257ZM240.199 117.104L240.213 117.769H238.514C238.071 117.769 237.673 117.81 237.321 117.892C236.974 117.969 236.68 118.085 236.439 118.239C236.198 118.389 236.012 118.57 235.882 118.782C235.757 118.994 235.694 119.235 235.694 119.505C235.694 119.784 235.764 120.04 235.904 120.271C236.048 120.503 236.251 120.688 236.511 120.828C236.776 120.963 237.09 121.031 237.451 121.031C237.933 121.031 238.357 120.941 238.724 120.763C239.095 120.585 239.401 120.351 239.642 120.062C239.883 119.772 240.045 119.457 240.127 119.114L240.503 119.613C240.44 119.854 240.324 120.103 240.156 120.358C239.992 120.609 239.777 120.845 239.512 121.067C239.247 121.284 238.933 121.462 238.572 121.602C238.215 121.737 237.81 121.804 237.357 121.804C236.846 121.804 236.4 121.708 236.019 121.515C235.643 121.322 235.349 121.059 235.137 120.727C234.93 120.389 234.826 120.009 234.826 119.584C234.826 119.199 234.908 118.854 235.072 118.55C235.236 118.242 235.472 117.982 235.781 117.769C236.094 117.552 236.47 117.389 236.909 117.278C237.352 117.162 237.849 117.104 238.398 117.104H240.199ZM251.877 120.141V110.553H252.745V121.66H251.935L251.877 120.141ZM246.446 117.827V117.675C246.446 117.068 246.516 116.521 246.656 116.034C246.796 115.542 246.996 115.123 247.256 114.776C247.521 114.424 247.84 114.156 248.211 113.973C248.582 113.785 249.001 113.691 249.469 113.691C249.927 113.691 250.332 113.766 250.684 113.915C251.036 114.065 251.337 114.279 251.588 114.559C251.843 114.838 252.048 115.171 252.202 115.557C252.361 115.942 252.477 116.371 252.549 116.844V118.774C252.492 119.218 252.386 119.625 252.231 119.997C252.077 120.363 251.872 120.683 251.617 120.958C251.361 121.228 251.053 121.438 250.691 121.587C250.334 121.732 249.922 121.804 249.455 121.804C248.992 121.804 248.575 121.708 248.204 121.515C247.832 121.322 247.517 121.05 247.256 120.698C246.996 120.341 246.796 119.919 246.656 119.433C246.516 118.946 246.446 118.411 246.446 117.827ZM247.314 117.675V117.827C247.314 118.285 247.36 118.709 247.452 119.1C247.543 119.49 247.683 119.83 247.871 120.119C248.059 120.409 248.298 120.635 248.587 120.799C248.876 120.963 249.218 121.045 249.614 121.045C250.11 121.045 250.527 120.951 250.865 120.763C251.202 120.57 251.472 120.317 251.674 120.004C251.877 119.686 252.024 119.339 252.116 118.963V116.714C252.058 116.458 251.973 116.198 251.862 115.933C251.752 115.668 251.6 115.424 251.407 115.202C251.219 114.976 250.978 114.795 250.684 114.66C250.395 114.52 250.043 114.45 249.628 114.45C249.228 114.45 248.883 114.532 248.594 114.696C248.305 114.86 248.064 115.089 247.871 115.383C247.683 115.672 247.543 116.012 247.452 116.403C247.36 116.793 247.314 117.217 247.314 117.675ZM258.045 121.804C257.534 121.804 257.064 121.71 256.635 121.522C256.211 121.334 255.84 121.069 255.521 120.727C255.208 120.385 254.965 119.98 254.791 119.512C254.622 119.04 254.538 118.524 254.538 117.965V117.654C254.538 117.051 254.627 116.506 254.806 116.019C254.984 115.533 255.23 115.116 255.543 114.769C255.856 114.421 256.213 114.156 256.613 113.973C257.018 113.785 257.442 113.691 257.886 113.691C258.382 113.691 258.824 113.78 259.209 113.959C259.595 114.132 259.918 114.38 260.178 114.703C260.443 115.022 260.643 115.4 260.778 115.839C260.913 116.273 260.981 116.752 260.981 117.278V117.806H255.059V117.068H260.12V116.967C260.111 116.528 260.021 116.118 259.853 115.737C259.689 115.352 259.443 115.038 259.115 114.797C258.787 114.556 258.378 114.436 257.886 114.436C257.52 114.436 257.182 114.513 256.874 114.667C256.57 114.822 256.307 115.043 256.085 115.333C255.868 115.617 255.7 115.957 255.579 116.352C255.464 116.743 255.406 117.176 255.406 117.654V117.965C255.406 118.398 255.468 118.803 255.594 119.179C255.724 119.551 255.907 119.878 256.143 120.163C256.384 120.447 256.669 120.669 256.997 120.828C257.324 120.987 257.686 121.067 258.081 121.067C258.544 121.067 258.954 120.982 259.31 120.814C259.667 120.64 259.988 120.368 260.272 119.997L260.814 120.416C260.646 120.667 260.434 120.898 260.178 121.11C259.927 121.322 259.626 121.491 259.274 121.616C258.922 121.742 258.513 121.804 258.045 121.804ZM267.265 113.836V121.66H266.404V113.836H267.265ZM266.252 111.572C266.252 111.409 266.303 111.271 266.404 111.16C266.51 111.045 266.655 110.987 266.838 110.987C267.021 110.987 267.166 111.045 267.272 111.16C267.383 111.271 267.438 111.409 267.438 111.572C267.438 111.732 267.383 111.869 267.272 111.985C267.166 112.095 267.021 112.151 266.838 112.151C266.655 112.151 266.51 112.095 266.404 111.985C266.303 111.869 266.252 111.732 266.252 111.572ZM270.446 115.455V121.66H269.578V113.836H270.41L270.446 115.455ZM270.287 117.263L269.868 117.046C269.897 116.584 269.983 116.15 270.128 115.745C270.277 115.34 270.485 114.983 270.75 114.675C271.015 114.366 271.333 114.125 271.704 113.951C272.076 113.778 272.497 113.691 272.97 113.691C273.351 113.691 273.695 113.744 274.004 113.85C274.317 113.951 274.582 114.113 274.799 114.335C275.021 114.552 275.192 114.836 275.313 115.188C275.433 115.54 275.493 115.962 275.493 116.453V121.66H274.633V116.482C274.633 115.962 274.551 115.554 274.387 115.26C274.228 114.966 274.004 114.756 273.715 114.631C273.43 114.506 273.1 114.443 272.724 114.443C272.28 114.443 271.904 114.535 271.596 114.718C271.292 114.896 271.044 115.13 270.851 115.419C270.663 115.704 270.523 116.01 270.432 116.338C270.34 116.661 270.292 116.969 270.287 117.263ZM275.486 116.584L274.908 116.598C274.932 116.217 275.019 115.853 275.168 115.506C275.322 115.159 275.532 114.85 275.797 114.581C276.062 114.306 276.378 114.089 276.744 113.93C277.116 113.771 277.533 113.691 277.995 113.691C278.4 113.691 278.762 113.747 279.08 113.857C279.398 113.963 279.666 114.135 279.883 114.371C280.104 114.602 280.273 114.899 280.389 115.26C280.504 115.622 280.562 116.056 280.562 116.562V121.66H279.695V116.555C279.695 116 279.613 115.571 279.449 115.267C279.29 114.959 279.068 114.744 278.783 114.624C278.499 114.503 278.166 114.443 277.786 114.443C277.41 114.448 277.079 114.518 276.795 114.653C276.511 114.783 276.272 114.957 276.079 115.173C275.891 115.386 275.746 115.615 275.645 115.86C275.549 116.106 275.496 116.347 275.486 116.584ZM282.283 117.871V117.632C282.283 117.063 282.365 116.538 282.529 116.056C282.693 115.574 282.927 115.157 283.231 114.805C283.539 114.453 283.908 114.18 284.337 113.988C284.766 113.79 285.243 113.691 285.769 113.691C286.299 113.691 286.779 113.79 287.208 113.988C287.637 114.18 288.005 114.453 288.314 114.805C288.622 115.157 288.859 115.574 289.023 116.056C289.186 116.538 289.268 117.063 289.268 117.632V117.871C289.268 118.439 289.186 118.965 289.023 119.447C288.859 119.924 288.622 120.339 288.314 120.691C288.01 121.043 287.644 121.317 287.215 121.515C286.786 121.708 286.309 121.804 285.783 121.804C285.253 121.804 284.773 121.708 284.344 121.515C283.915 121.317 283.546 121.043 283.238 120.691C282.929 120.339 282.693 119.924 282.529 119.447C282.365 118.965 282.283 118.439 282.283 117.871ZM283.144 117.632V117.871C283.144 118.3 283.202 118.707 283.317 119.093C283.433 119.473 283.602 119.813 283.824 120.112C284.045 120.406 284.32 120.638 284.648 120.806C284.976 120.975 285.354 121.059 285.783 121.059C286.207 121.059 286.581 120.975 286.904 120.806C287.232 120.638 287.506 120.406 287.728 120.112C287.95 119.813 288.116 119.473 288.227 119.093C288.343 118.707 288.401 118.3 288.401 117.871V117.632C288.401 117.208 288.343 116.805 288.227 116.424C288.116 116.044 287.948 115.704 287.721 115.405C287.499 115.106 287.224 114.87 286.897 114.696C286.569 114.523 286.193 114.436 285.769 114.436C285.344 114.436 284.968 114.523 284.641 114.696C284.318 114.87 284.043 115.106 283.816 115.405C283.595 115.704 283.426 116.044 283.31 116.424C283.199 116.805 283.144 117.208 283.144 117.632ZM285.248 112.592L286.629 110.567H287.67L286 112.592H285.248ZM293.253 120.828L295.762 113.836H296.651L293.723 121.66H293.094L293.253 120.828ZM290.982 113.836L293.52 120.85L293.658 121.66H293.021L290.086 113.836H290.982ZM300.997 121.804C300.486 121.804 300.016 121.71 299.587 121.522C299.163 121.334 298.792 121.069 298.474 120.727C298.16 120.385 297.917 119.98 297.743 119.512C297.574 119.04 297.49 118.524 297.49 117.965V117.654C297.49 117.051 297.579 116.506 297.758 116.019C297.936 115.533 298.182 115.116 298.495 114.769C298.809 114.421 299.165 114.156 299.565 113.973C299.97 113.785 300.395 113.691 300.838 113.691C301.335 113.691 301.776 113.78 302.161 113.959C302.547 114.132 302.87 114.38 303.13 114.703C303.395 115.022 303.595 115.4 303.73 115.839C303.865 116.273 303.933 116.752 303.933 117.278V117.806H298.011V117.068H303.072V116.967C303.063 116.528 302.974 116.118 302.805 115.737C302.641 115.352 302.395 115.038 302.067 114.797C301.74 114.556 301.33 114.436 300.838 114.436C300.472 114.436 300.134 114.513 299.826 114.667C299.522 114.822 299.259 115.043 299.038 115.333C298.821 115.617 298.652 115.957 298.531 116.352C298.416 116.743 298.358 117.176 298.358 117.654V117.965C298.358 118.398 298.42 118.803 298.546 119.179C298.676 119.551 298.859 119.878 299.095 120.163C299.336 120.447 299.621 120.669 299.949 120.828C300.276 120.987 300.638 121.067 301.033 121.067C301.496 121.067 301.906 120.982 302.263 120.814C302.619 120.64 302.94 120.368 303.224 119.997L303.767 120.416C303.598 120.667 303.386 120.898 303.13 121.11C302.88 121.322 302.578 121.491 302.226 121.616C301.874 121.742 301.465 121.804 300.997 121.804ZM306.601 113.836V121.66H305.741V113.836H306.601ZM305.589 111.572C305.589 111.409 305.639 111.271 305.741 111.16C305.847 111.045 305.991 110.987 306.175 110.987C306.358 110.987 306.502 111.045 306.608 111.16C306.719 111.271 306.775 111.409 306.775 111.572C306.775 111.732 306.719 111.869 306.608 111.985C306.502 112.095 306.358 112.151 306.175 112.151C305.991 112.151 305.847 112.095 305.741 111.985C305.639 111.869 305.589 111.732 305.589 111.572ZM313.651 119.664C313.651 119.452 313.598 119.242 313.492 119.035C313.386 118.828 313.181 118.637 312.878 118.464C312.579 118.29 312.138 118.143 311.554 118.022C311.121 117.926 310.732 117.818 310.39 117.697C310.053 117.577 309.768 117.432 309.537 117.263C309.306 117.094 309.13 116.892 309.009 116.656C308.889 116.42 308.828 116.14 308.828 115.817C308.828 115.528 308.891 115.255 309.016 115C309.146 114.74 309.33 114.513 309.566 114.32C309.807 114.123 310.096 113.968 310.434 113.857C310.776 113.747 311.159 113.691 311.583 113.691C312.186 113.691 312.702 113.795 313.131 114.002C313.565 114.205 313.895 114.482 314.121 114.834C314.353 115.186 314.468 115.583 314.468 116.027H313.608C313.608 115.757 313.528 115.501 313.369 115.26C313.215 115.019 312.986 114.822 312.682 114.667C312.384 114.513 312.017 114.436 311.583 114.436C311.135 114.436 310.771 114.503 310.491 114.638C310.212 114.773 310.007 114.944 309.877 115.152C309.751 115.359 309.689 115.574 309.689 115.795C309.689 115.969 309.715 116.128 309.768 116.273C309.826 116.412 309.927 116.543 310.072 116.663C310.221 116.784 310.434 116.897 310.708 117.003C310.983 117.109 311.34 117.213 311.779 117.314C312.41 117.454 312.926 117.625 313.326 117.827C313.731 118.025 314.03 118.271 314.223 118.565C314.415 118.854 314.512 119.206 314.512 119.621C314.512 119.944 314.444 120.24 314.309 120.51C314.174 120.775 313.979 121.004 313.724 121.197C313.473 121.39 313.169 121.539 312.813 121.645C312.461 121.751 312.065 121.804 311.627 121.804C310.966 121.804 310.407 121.696 309.949 121.479C309.496 121.257 309.151 120.968 308.915 120.611C308.684 120.25 308.568 119.866 308.568 119.461H309.428C309.457 119.866 309.585 120.187 309.812 120.423C310.038 120.655 310.315 120.818 310.643 120.915C310.976 121.011 311.304 121.059 311.627 121.059C312.07 121.059 312.441 120.994 312.74 120.864C313.039 120.734 313.266 120.563 313.42 120.351C313.574 120.139 313.651 119.91 313.651 119.664ZM325.17 124.668V115.34L325.228 113.836H326.031V124.668H325.17ZM319.74 117.827V117.675C319.74 117.068 319.807 116.521 319.942 116.034C320.077 115.542 320.275 115.123 320.535 114.776C320.8 114.424 321.119 114.156 321.49 113.973C321.866 113.785 322.292 113.691 322.77 113.691C323.228 113.691 323.635 113.766 323.992 113.915C324.348 114.065 324.655 114.279 324.91 114.559C325.17 114.838 325.38 115.171 325.539 115.557C325.698 115.942 325.814 116.371 325.886 116.844V118.774C325.828 119.218 325.72 119.625 325.561 119.997C325.407 120.363 325.199 120.683 324.939 120.958C324.679 121.228 324.365 121.438 323.999 121.587C323.637 121.732 323.223 121.804 322.755 121.804C322.283 121.804 321.859 121.708 321.483 121.515C321.111 121.322 320.796 121.05 320.535 120.698C320.28 120.341 320.082 119.919 319.942 119.433C319.807 118.946 319.74 118.411 319.74 117.827ZM320.608 117.675V117.827C320.608 118.285 320.653 118.709 320.745 119.1C320.841 119.49 320.984 119.833 321.172 120.127C321.36 120.421 321.598 120.65 321.887 120.814C322.182 120.978 322.524 121.059 322.914 121.059C323.411 121.059 323.83 120.963 324.172 120.77C324.515 120.577 324.787 120.322 324.99 120.004C325.197 119.686 325.346 119.339 325.438 118.963V116.714C325.39 116.468 325.308 116.212 325.192 115.947C325.076 115.682 324.92 115.436 324.722 115.21C324.529 114.978 324.286 114.793 323.992 114.653C323.698 114.508 323.343 114.436 322.929 114.436C322.533 114.436 322.189 114.52 321.895 114.689C321.605 114.853 321.364 115.082 321.172 115.376C320.984 115.67 320.841 116.012 320.745 116.403C320.653 116.793 320.608 117.217 320.608 117.675ZM333.356 119.852V113.836H334.224V121.66H333.392L333.356 119.852ZM333.515 118.406L333.963 118.391C333.963 118.883 333.905 119.336 333.79 119.751C333.674 120.165 333.493 120.527 333.247 120.835C333.002 121.144 332.683 121.382 332.293 121.551C331.902 121.72 331.432 121.804 330.883 121.804C330.502 121.804 330.153 121.751 329.834 121.645C329.521 121.534 329.251 121.361 329.024 121.125C328.798 120.888 328.622 120.582 328.497 120.206C328.376 119.83 328.316 119.375 328.316 118.84V113.836H329.176V118.854C329.176 119.273 329.222 119.623 329.314 119.903C329.41 120.182 329.54 120.406 329.704 120.575C329.873 120.744 330.066 120.864 330.283 120.937C330.5 121.009 330.733 121.045 330.984 121.045C331.62 121.045 332.122 120.922 332.488 120.676C332.859 120.43 333.122 120.107 333.276 119.707C333.435 119.302 333.515 118.869 333.515 118.406ZM339.509 121.804C338.998 121.804 338.528 121.71 338.099 121.522C337.675 121.334 337.304 121.069 336.986 120.727C336.672 120.385 336.429 119.98 336.255 119.512C336.087 119.04 336.002 118.524 336.002 117.965V117.654C336.002 117.051 336.092 116.506 336.27 116.019C336.448 115.533 336.694 115.116 337.007 114.769C337.321 114.421 337.678 114.156 338.078 113.973C338.483 113.785 338.907 113.691 339.35 113.691C339.847 113.691 340.288 113.78 340.674 113.959C341.059 114.132 341.382 114.38 341.643 114.703C341.908 115.022 342.108 115.4 342.243 115.839C342.378 116.273 342.445 116.752 342.445 117.278V117.806H336.523V117.068H341.585V116.967C341.575 116.528 341.486 116.118 341.317 115.737C341.153 115.352 340.907 115.038 340.58 114.797C340.252 114.556 339.842 114.436 339.35 114.436C338.984 114.436 338.647 114.513 338.338 114.667C338.034 114.822 337.772 115.043 337.55 115.333C337.333 115.617 337.164 115.957 337.044 116.352C336.928 116.743 336.87 117.176 336.87 117.654V117.965C336.87 118.398 336.933 118.803 337.058 119.179C337.188 119.551 337.371 119.878 337.608 120.163C337.849 120.447 338.133 120.669 338.461 120.828C338.789 120.987 339.15 121.067 339.546 121.067C340.008 121.067 340.418 120.982 340.775 120.814C341.132 120.64 341.452 120.368 341.737 119.997L342.279 120.416C342.11 120.667 341.898 120.898 341.643 121.11C341.392 121.322 341.091 121.491 340.739 121.616C340.387 121.742 339.977 121.804 339.509 121.804ZM350.652 121.059C351.019 121.059 351.361 120.992 351.679 120.857C352.002 120.717 352.267 120.512 352.475 120.242C352.687 119.968 352.807 119.633 352.836 119.237H353.66C353.636 119.734 353.485 120.177 353.205 120.568C352.93 120.953 352.569 121.257 352.12 121.479C351.677 121.696 351.187 121.804 350.652 121.804C350.108 121.804 349.626 121.705 349.206 121.508C348.792 121.31 348.445 121.035 348.165 120.683C347.885 120.327 347.673 119.912 347.529 119.44C347.389 118.963 347.319 118.449 347.319 117.9V117.596C347.319 117.046 347.389 116.535 347.529 116.063C347.673 115.586 347.885 115.171 348.165 114.819C348.445 114.462 348.792 114.185 349.206 113.988C349.621 113.79 350.1 113.691 350.645 113.691C351.204 113.691 351.706 113.804 352.149 114.031C352.598 114.258 352.954 114.578 353.219 114.993C353.489 115.407 353.636 115.899 353.66 116.468H352.836C352.812 116.048 352.701 115.687 352.504 115.383C352.306 115.079 352.046 114.846 351.723 114.682C351.4 114.518 351.04 114.436 350.645 114.436C350.202 114.436 349.823 114.523 349.51 114.696C349.197 114.865 348.941 115.099 348.743 115.398C348.551 115.692 348.408 116.029 348.317 116.41C348.225 116.786 348.179 117.181 348.179 117.596V117.9C348.179 118.319 348.223 118.719 348.31 119.1C348.401 119.476 348.543 119.811 348.736 120.105C348.934 120.399 349.189 120.633 349.503 120.806C349.821 120.975 350.204 121.059 350.652 121.059ZM354.926 117.871V117.632C354.926 117.063 355.008 116.538 355.172 116.056C355.336 115.574 355.569 115.157 355.873 114.805C356.182 114.453 356.55 114.18 356.98 113.988C357.409 113.79 357.886 113.691 358.411 113.691C358.942 113.691 359.421 113.79 359.85 113.988C360.279 114.18 360.648 114.453 360.957 114.805C361.265 115.157 361.501 115.574 361.665 116.056C361.829 116.538 361.911 117.063 361.911 117.632V117.871C361.911 118.439 361.829 118.965 361.665 119.447C361.501 119.924 361.265 120.339 360.957 120.691C360.653 121.043 360.286 121.317 359.857 121.515C359.428 121.708 358.951 121.804 358.426 121.804C357.895 121.804 357.416 121.708 356.987 121.515C356.558 121.317 356.189 121.043 355.88 120.691C355.572 120.339 355.336 119.924 355.172 119.447C355.008 118.965 354.926 118.439 354.926 117.871ZM355.786 117.632V117.871C355.786 118.3 355.844 118.707 355.96 119.093C356.076 119.473 356.244 119.813 356.466 120.112C356.688 120.406 356.963 120.638 357.29 120.806C357.618 120.975 357.997 121.059 358.426 121.059C358.85 121.059 359.224 120.975 359.547 120.806C359.874 120.638 360.149 120.406 360.371 120.112C360.593 119.813 360.759 119.473 360.87 119.093C360.985 118.707 361.043 118.3 361.043 117.871V117.632C361.043 117.208 360.985 116.805 360.87 116.424C360.759 116.044 360.59 115.704 360.364 115.405C360.142 115.106 359.867 114.87 359.539 114.696C359.211 114.523 358.835 114.436 358.411 114.436C357.987 114.436 357.611 114.523 357.283 114.696C356.96 114.87 356.685 115.106 356.459 115.405C356.237 115.704 356.068 116.044 355.953 116.424C355.842 116.805 355.786 117.208 355.786 117.632ZM364.565 115.506V121.66H363.704V113.836H364.529L364.565 115.506ZM364.37 117.263L363.986 117.046C364.015 116.584 364.109 116.15 364.268 115.745C364.427 115.34 364.642 114.983 364.912 114.675C365.187 114.366 365.507 114.125 365.874 113.951C366.245 113.778 366.655 113.691 367.103 113.691C367.493 113.691 367.843 113.744 368.151 113.85C368.46 113.956 368.723 114.125 368.94 114.356C369.157 114.588 369.32 114.884 369.431 115.246C369.547 115.607 369.605 116.048 369.605 116.569V121.66H368.737V116.562C368.737 116.022 368.662 115.6 368.513 115.296C368.364 114.988 368.151 114.769 367.877 114.638C367.602 114.508 367.276 114.443 366.9 114.443C366.486 114.443 366.122 114.535 365.809 114.718C365.5 114.896 365.24 115.13 365.028 115.419C364.82 115.704 364.661 116.01 364.55 116.338C364.439 116.661 364.379 116.969 364.37 117.263ZM374.869 121.804C374.358 121.804 373.888 121.71 373.459 121.522C373.035 121.334 372.664 121.069 372.345 120.727C372.032 120.385 371.789 119.98 371.615 119.512C371.446 119.04 371.362 118.524 371.362 117.965V117.654C371.362 117.051 371.451 116.506 371.63 116.019C371.808 115.533 372.054 115.116 372.367 114.769C372.68 114.421 373.037 114.156 373.437 113.973C373.842 113.785 374.266 113.691 374.71 113.691C375.206 113.691 375.648 113.78 376.033 113.959C376.419 114.132 376.742 114.38 377.002 114.703C377.267 115.022 377.467 115.4 377.602 115.839C377.737 116.273 377.805 116.752 377.805 117.278V117.806H371.883V117.068H376.944V116.967C376.935 116.528 376.845 116.118 376.677 115.737C376.513 115.352 376.267 115.038 375.939 114.797C375.611 114.556 375.202 114.436 374.71 114.436C374.344 114.436 374.006 114.513 373.698 114.667C373.394 114.822 373.131 115.043 372.909 115.333C372.692 115.617 372.524 115.957 372.403 116.352C372.288 116.743 372.23 117.176 372.23 117.654V117.965C372.23 118.398 372.292 118.803 372.418 119.179C372.548 119.551 372.731 119.878 372.967 120.163C373.208 120.447 373.493 120.669 373.821 120.828C374.148 120.987 374.51 121.067 374.905 121.067C375.368 121.067 375.778 120.982 376.134 120.814C376.491 120.64 376.812 120.368 377.096 119.997L377.638 120.416C377.47 120.667 377.258 120.898 377.002 121.11C376.751 121.322 376.45 121.491 376.098 121.616C375.746 121.742 375.337 121.804 374.869 121.804ZM382.396 121.059C382.763 121.059 383.105 120.992 383.423 120.857C383.746 120.717 384.011 120.512 384.219 120.242C384.431 119.968 384.551 119.633 384.58 119.237H385.405C385.38 119.734 385.229 120.177 384.949 120.568C384.674 120.953 384.313 121.257 383.864 121.479C383.421 121.696 382.932 121.804 382.396 121.804C381.852 121.804 381.37 121.705 380.95 121.508C380.536 121.31 380.189 121.035 379.909 120.683C379.629 120.327 379.417 119.912 379.273 119.44C379.133 118.963 379.063 118.449 379.063 117.9V117.596C379.063 117.046 379.133 116.535 379.273 116.063C379.417 115.586 379.629 115.171 379.909 114.819C380.189 114.462 380.536 114.185 380.95 113.988C381.365 113.79 381.845 113.691 382.389 113.691C382.948 113.691 383.45 113.804 383.893 114.031C384.342 114.258 384.698 114.578 384.963 114.993C385.233 115.407 385.38 115.899 385.405 116.468H384.58C384.556 116.048 384.445 115.687 384.248 115.383C384.05 115.079 383.79 114.846 383.467 114.682C383.144 114.518 382.785 114.436 382.389 114.436C381.946 114.436 381.567 114.523 381.254 114.696C380.941 114.865 380.685 115.099 380.487 115.398C380.295 115.692 380.152 116.029 380.061 116.41C379.969 116.786 379.923 117.181 379.923 117.596V117.9C379.923 118.319 379.967 118.719 380.054 119.1C380.145 119.476 380.287 119.811 380.48 120.105C380.678 120.399 380.933 120.633 381.247 120.806C381.565 120.975 381.948 121.059 382.396 121.059ZM390.105 113.836V114.544H386.186V113.836H390.105ZM387.624 111.826H388.485V119.758C388.485 120.119 388.533 120.392 388.63 120.575C388.726 120.758 388.851 120.881 389.006 120.944C389.16 121.006 389.326 121.038 389.505 121.038C389.635 121.038 389.76 121.031 389.881 121.016C390.001 120.997 390.11 120.978 390.206 120.958L390.242 121.689C390.136 121.722 389.999 121.749 389.83 121.768C389.661 121.792 389.492 121.804 389.324 121.804C388.991 121.804 388.697 121.744 388.442 121.624C388.186 121.498 387.986 121.286 387.841 120.987C387.697 120.683 387.624 120.271 387.624 119.751V111.826ZM396.678 120.257V116.222C396.678 115.851 396.601 115.53 396.446 115.26C396.292 114.99 396.065 114.783 395.767 114.638C395.468 114.494 395.099 114.421 394.66 114.421C394.255 114.421 393.894 114.494 393.576 114.638C393.262 114.778 393.014 114.969 392.831 115.21C392.652 115.446 392.563 115.709 392.563 115.998L391.696 115.991C391.696 115.697 391.768 115.412 391.912 115.137C392.057 114.863 392.262 114.617 392.527 114.4C392.792 114.183 393.108 114.012 393.474 113.886C393.846 113.756 394.253 113.691 394.696 113.691C395.256 113.691 395.747 113.785 396.172 113.973C396.601 114.161 396.936 114.443 397.177 114.819C397.418 115.195 397.538 115.668 397.538 116.236V120.018C397.538 120.288 397.557 120.568 397.596 120.857C397.639 121.146 397.7 121.385 397.777 121.573V121.66H396.858C396.801 121.486 396.755 121.269 396.721 121.009C396.692 120.744 396.678 120.493 396.678 120.257ZM396.88 117.104L396.895 117.769H395.195C394.752 117.769 394.354 117.81 394.002 117.892C393.655 117.969 393.361 118.085 393.12 118.239C392.879 118.389 392.693 118.57 392.563 118.782C392.438 118.994 392.375 119.235 392.375 119.505C392.375 119.784 392.445 120.04 392.585 120.271C392.73 120.503 392.932 120.688 393.192 120.828C393.457 120.963 393.771 121.031 394.132 121.031C394.614 121.031 395.039 120.941 395.405 120.763C395.776 120.585 396.082 120.351 396.323 120.062C396.564 119.772 396.726 119.457 396.808 119.114L397.184 119.613C397.121 119.854 397.005 120.103 396.837 120.358C396.673 120.609 396.458 120.845 396.193 121.067C395.928 121.284 395.615 121.462 395.253 121.602C394.896 121.737 394.492 121.804 394.038 121.804C393.527 121.804 393.081 121.708 392.701 121.515C392.325 121.322 392.031 121.059 391.818 120.727C391.611 120.389 391.508 120.009 391.508 119.584C391.508 119.199 391.589 118.854 391.753 118.55C391.917 118.242 392.153 117.982 392.462 117.769C392.775 117.552 393.151 117.389 393.59 117.278C394.034 117.162 394.53 117.104 395.08 117.104H396.88ZM405.782 120.828L408.291 113.836H409.18L406.252 121.66H405.622L405.782 120.828ZM403.511 113.836L406.049 120.85L406.186 121.66H405.55L402.614 113.836H403.511ZM410.012 117.871V117.632C410.012 117.063 410.094 116.538 410.257 116.056C410.421 115.574 410.655 115.157 410.959 114.805C411.267 114.453 411.636 114.18 412.065 113.988C412.494 113.79 412.972 113.691 413.497 113.691C414.027 113.691 414.507 113.79 414.936 113.988C415.365 114.18 415.734 114.453 416.042 114.805C416.351 115.157 416.587 115.574 416.751 116.056C416.915 116.538 416.997 117.063 416.997 117.632V117.871C416.997 118.439 416.915 118.965 416.751 119.447C416.587 119.924 416.351 120.339 416.042 120.691C415.739 121.043 415.372 121.317 414.943 121.515C414.514 121.708 414.037 121.804 413.511 121.804C412.981 121.804 412.502 121.708 412.072 121.515C411.643 121.317 411.275 121.043 410.966 120.691C410.658 120.339 410.421 119.924 410.257 119.447C410.094 118.965 410.012 118.439 410.012 117.871ZM410.872 117.632V117.871C410.872 118.3 410.93 118.707 411.046 119.093C411.161 119.473 411.33 119.813 411.552 120.112C411.774 120.406 412.048 120.638 412.376 120.806C412.704 120.975 413.082 121.059 413.511 121.059C413.936 121.059 414.309 120.975 414.632 120.806C414.96 120.638 415.235 120.406 415.457 120.112C415.678 119.813 415.845 119.473 415.956 119.093C416.071 118.707 416.129 118.3 416.129 117.871V117.632C416.129 117.208 416.071 116.805 415.956 116.424C415.845 116.044 415.676 115.704 415.449 115.405C415.228 115.106 414.953 114.87 414.625 114.696C414.297 114.523 413.921 114.436 413.497 114.436C413.073 114.436 412.697 114.523 412.369 114.696C412.046 114.87 411.771 115.106 411.545 115.405C411.323 115.704 411.154 116.044 411.038 116.424C410.928 116.805 410.872 117.208 410.872 117.632ZM421.675 121.059C422.042 121.059 422.384 120.992 422.702 120.857C423.025 120.717 423.29 120.512 423.497 120.242C423.71 119.968 423.83 119.633 423.859 119.237H424.683C424.659 119.734 424.507 120.177 424.228 120.568C423.953 120.953 423.591 121.257 423.143 121.479C422.7 121.696 422.21 121.804 421.675 121.804C421.131 121.804 420.648 121.705 420.229 121.508C419.814 121.31 419.467 121.035 419.188 120.683C418.908 120.327 418.696 119.912 418.551 119.44C418.412 118.963 418.342 118.449 418.342 117.9V117.596C418.342 117.046 418.412 116.535 418.551 116.063C418.696 115.586 418.908 115.171 419.188 114.819C419.467 114.462 419.814 114.185 420.229 113.988C420.644 113.79 421.123 113.691 421.668 113.691C422.227 113.691 422.729 113.804 423.172 114.031C423.62 114.258 423.977 114.578 424.242 114.993C424.512 115.407 424.659 115.899 424.683 116.468H423.859C423.835 116.048 423.724 115.687 423.526 115.383C423.329 115.079 423.068 114.846 422.745 114.682C422.422 114.518 422.063 114.436 421.668 114.436C421.225 114.436 420.846 114.523 420.533 114.696C420.219 114.865 419.964 115.099 419.766 115.398C419.573 115.692 419.431 116.029 419.34 116.41C419.248 116.786 419.202 117.181 419.202 117.596V117.9C419.202 118.319 419.246 118.719 419.332 119.1C419.424 119.476 419.566 119.811 419.759 120.105C419.957 120.399 420.212 120.633 420.526 120.806C420.844 120.975 421.227 121.059 421.675 121.059ZM429.449 121.804C428.938 121.804 428.468 121.71 428.039 121.522C427.614 121.334 427.243 121.069 426.925 120.727C426.612 120.385 426.368 119.98 426.195 119.512C426.026 119.04 425.942 118.524 425.942 117.965V117.654C425.942 117.051 426.031 116.506 426.209 116.019C426.387 115.533 426.633 115.116 426.947 114.769C427.26 114.421 427.617 114.156 428.017 113.973C428.422 113.785 428.846 113.691 429.289 113.691C429.786 113.691 430.227 113.78 430.613 113.959C430.998 114.132 431.321 114.38 431.582 114.703C431.847 115.022 432.047 115.4 432.182 115.839C432.317 116.273 432.384 116.752 432.384 117.278V117.806H426.462V117.068H431.524V116.967C431.514 116.528 431.425 116.118 431.256 115.737C431.092 115.352 430.847 115.038 430.519 114.797C430.191 114.556 429.781 114.436 429.289 114.436C428.923 114.436 428.586 114.513 428.277 114.667C427.973 114.822 427.711 115.043 427.489 115.333C427.272 115.617 427.103 115.957 426.983 116.352C426.867 116.743 426.809 117.176 426.809 117.654V117.965C426.809 118.398 426.872 118.803 426.997 119.179C427.127 119.551 427.311 119.878 427.547 120.163C427.788 120.447 428.072 120.669 428.4 120.828C428.728 120.987 429.089 121.067 429.485 121.067C429.948 121.067 430.357 120.982 430.714 120.814C431.071 120.64 431.391 120.368 431.676 119.997L432.218 120.416C432.049 120.667 431.837 120.898 431.582 121.11C431.331 121.322 431.03 121.491 430.678 121.616C430.326 121.742 429.916 121.804 429.449 121.804ZM429.658 110.632L431.401 112.491V112.563H430.598L429.383 111.247L428.176 112.563H427.395V112.476L429.109 110.632H429.658ZM442.464 120.257V116.222C442.464 115.851 442.387 115.53 442.233 115.26C442.079 114.99 441.852 114.783 441.553 114.638C441.254 114.494 440.886 114.421 440.447 114.421C440.042 114.421 439.68 114.494 439.362 114.638C439.049 114.778 438.801 114.969 438.617 115.21C438.439 115.446 438.35 115.709 438.35 115.998L437.482 115.991C437.482 115.697 437.555 115.412 437.699 115.137C437.844 114.863 438.049 114.617 438.314 114.4C438.579 114.183 438.895 114.012 439.261 113.886C439.632 113.756 440.04 113.691 440.483 113.691C441.042 113.691 441.534 113.785 441.958 113.973C442.387 114.161 442.722 114.443 442.963 114.819C443.204 115.195 443.325 115.668 443.325 116.236V120.018C443.325 120.288 443.344 120.568 443.383 120.857C443.426 121.146 443.486 121.385 443.563 121.573V121.66H442.645C442.587 121.486 442.541 121.269 442.508 121.009C442.479 120.744 442.464 120.493 442.464 120.257ZM442.667 117.104L442.681 117.769H440.982C440.539 117.769 440.141 117.81 439.789 117.892C439.442 117.969 439.148 118.085 438.907 118.239C438.666 118.389 438.48 118.57 438.35 118.782C438.225 118.994 438.162 119.235 438.162 119.505C438.162 119.784 438.232 120.04 438.372 120.271C438.516 120.503 438.719 120.688 438.979 120.828C439.244 120.963 439.558 121.031 439.919 121.031C440.401 121.031 440.825 120.941 441.192 120.763C441.563 120.585 441.869 120.351 442.11 120.062C442.351 119.772 442.513 119.457 442.595 119.114L442.971 119.613C442.908 119.854 442.792 120.103 442.623 120.358C442.46 120.609 442.245 120.845 441.98 121.067C441.715 121.284 441.401 121.462 441.04 121.602C440.683 121.737 440.278 121.804 439.825 121.804C439.314 121.804 438.868 121.708 438.487 121.515C438.111 121.322 437.817 121.059 437.605 120.727C437.398 120.389 437.294 120.009 437.294 119.584C437.294 119.199 437.376 118.854 437.54 118.55C437.704 118.242 437.94 117.982 438.249 117.769C438.562 117.552 438.938 117.389 439.377 117.278C439.82 117.162 440.317 117.104 440.866 117.104H442.667ZM445.169 117.871V117.632C445.169 117.063 445.251 116.538 445.415 116.056C445.579 115.574 445.812 115.157 446.116 114.805C446.425 114.453 446.793 114.18 447.222 113.988C447.651 113.79 448.129 113.691 448.654 113.691C449.184 113.691 449.664 113.79 450.093 113.988C450.522 114.18 450.891 114.453 451.199 114.805C451.508 115.157 451.744 115.574 451.908 116.056C452.072 116.538 452.154 117.063 452.154 117.632V117.871C452.154 118.439 452.072 118.965 451.908 119.447C451.744 119.924 451.508 120.339 451.199 120.691C450.896 121.043 450.529 121.317 450.1 121.515C449.671 121.708 449.194 121.804 448.669 121.804C448.138 121.804 447.659 121.708 447.23 121.515C446.801 121.317 446.432 121.043 446.123 120.691C445.815 120.339 445.579 119.924 445.415 119.447C445.251 118.965 445.169 118.439 445.169 117.871ZM446.029 117.632V117.871C446.029 118.3 446.087 118.707 446.203 119.093C446.318 119.473 446.487 119.813 446.709 120.112C446.931 120.406 447.205 120.638 447.533 120.806C447.861 120.975 448.24 121.059 448.669 121.059C449.093 121.059 449.466 120.975 449.789 120.806C450.117 120.638 450.392 120.406 450.614 120.112C450.835 119.813 451.002 119.473 451.113 119.093C451.228 118.707 451.286 118.3 451.286 117.871V117.632C451.286 117.208 451.228 116.805 451.113 116.424C451.002 116.044 450.833 115.704 450.606 115.405C450.385 115.106 450.11 114.87 449.782 114.696C449.454 114.523 449.078 114.436 448.654 114.436C448.23 114.436 447.854 114.523 447.526 114.696C447.203 114.87 446.928 115.106 446.702 115.405C446.48 115.704 446.311 116.044 446.196 116.424C446.085 116.805 446.029 117.208 446.029 117.632ZM462.248 119.664C462.248 119.452 462.195 119.242 462.089 119.035C461.983 118.828 461.778 118.637 461.475 118.464C461.176 118.29 460.735 118.143 460.151 118.022C459.718 117.926 459.329 117.818 458.987 117.697C458.65 117.577 458.365 117.432 458.134 117.263C457.903 117.094 457.727 116.892 457.606 116.656C457.486 116.42 457.425 116.14 457.425 115.817C457.425 115.528 457.488 115.255 457.613 115C457.743 114.74 457.927 114.513 458.163 114.32C458.404 114.123 458.693 113.968 459.031 113.857C459.373 113.747 459.756 113.691 460.18 113.691C460.783 113.691 461.299 113.795 461.728 114.002C462.162 114.205 462.492 114.482 462.718 114.834C462.95 115.186 463.065 115.583 463.065 116.027H462.205C462.205 115.757 462.125 115.501 461.966 115.26C461.812 115.019 461.583 114.822 461.279 114.667C460.981 114.513 460.614 114.436 460.18 114.436C459.732 114.436 459.368 114.503 459.088 114.638C458.809 114.773 458.604 114.944 458.474 115.152C458.348 115.359 458.286 115.574 458.286 115.795C458.286 115.969 458.312 116.128 458.365 116.273C458.423 116.412 458.524 116.543 458.669 116.663C458.818 116.784 459.031 116.897 459.305 117.003C459.58 117.109 459.937 117.213 460.376 117.314C461.007 117.454 461.523 117.625 461.923 117.827C462.328 118.025 462.627 118.271 462.82 118.565C463.012 118.854 463.109 119.206 463.109 119.621C463.109 119.944 463.041 120.24 462.906 120.51C462.771 120.775 462.576 121.004 462.321 121.197C462.07 121.39 461.766 121.539 461.41 121.645C461.058 121.751 460.662 121.804 460.224 121.804C459.563 121.804 459.004 121.696 458.546 121.479C458.093 121.257 457.748 120.968 457.512 120.611C457.281 120.25 457.165 119.866 457.165 119.461H458.025C458.054 119.866 458.182 120.187 458.409 120.423C458.635 120.655 458.912 120.818 459.24 120.915C459.573 121.011 459.901 121.059 460.224 121.059C460.667 121.059 461.038 120.994 461.337 120.864C461.636 120.734 461.863 120.563 462.017 120.351C462.171 120.139 462.248 119.91 462.248 119.664ZM468.091 121.804C467.58 121.804 467.11 121.71 466.681 121.522C466.257 121.334 465.886 121.069 465.567 120.727C465.254 120.385 465.011 119.98 464.837 119.512C464.668 119.04 464.584 118.524 464.584 117.965V117.654C464.584 117.051 464.673 116.506 464.852 116.019C465.03 115.533 465.276 115.116 465.589 114.769C465.902 114.421 466.259 114.156 466.659 113.973C467.064 113.785 467.488 113.691 467.932 113.691C468.428 113.691 468.87 113.78 469.255 113.959C469.641 114.132 469.964 114.38 470.224 114.703C470.489 115.022 470.689 115.4 470.824 115.839C470.959 116.273 471.027 116.752 471.027 117.278V117.806H465.105V117.068H470.166V116.967C470.157 116.528 470.067 116.118 469.899 115.737C469.735 115.352 469.489 115.038 469.161 114.797C468.833 114.556 468.424 114.436 467.932 114.436C467.566 114.436 467.228 114.513 466.92 114.667C466.616 114.822 466.353 115.043 466.131 115.333C465.914 115.617 465.746 115.957 465.625 116.352C465.51 116.743 465.452 117.176 465.452 117.654V117.965C465.452 118.398 465.514 118.803 465.64 119.179C465.77 119.551 465.953 119.878 466.189 120.163C466.43 120.447 466.715 120.669 467.043 120.828C467.37 120.987 467.732 121.067 468.127 121.067C468.59 121.067 469 120.982 469.356 120.814C469.713 120.64 470.034 120.368 470.318 119.997L470.86 120.416C470.692 120.667 470.48 120.898 470.224 121.11C469.973 121.322 469.672 121.491 469.32 121.616C468.968 121.742 468.559 121.804 468.091 121.804ZM477.744 119.852V113.836H478.612V121.66H477.781L477.744 119.852ZM477.903 118.406L478.352 118.391C478.352 118.883 478.294 119.336 478.178 119.751C478.063 120.165 477.882 120.527 477.636 120.835C477.39 121.144 477.072 121.382 476.681 121.551C476.291 121.72 475.821 121.804 475.271 121.804C474.891 121.804 474.541 121.751 474.223 121.645C473.91 121.534 473.64 121.361 473.413 121.125C473.186 120.888 473.011 120.582 472.885 120.206C472.765 119.83 472.704 119.375 472.704 118.84V113.836H473.565V118.854C473.565 119.273 473.611 119.623 473.702 119.903C473.799 120.182 473.929 120.406 474.093 120.575C474.261 120.744 474.454 120.864 474.671 120.937C474.888 121.009 475.122 121.045 475.373 121.045C476.009 121.045 476.51 120.922 476.877 120.676C477.248 120.43 477.511 120.107 477.665 119.707C477.824 119.302 477.903 118.869 477.903 118.406ZM485.351 115.506V121.66H484.491V113.836H485.315L485.351 115.506ZM485.156 117.263L484.773 117.046C484.802 116.584 484.896 116.15 485.055 115.745C485.214 115.34 485.429 114.983 485.698 114.675C485.973 114.366 486.294 114.125 486.66 113.951C487.031 113.778 487.441 113.691 487.889 113.691C488.28 113.691 488.629 113.744 488.938 113.85C489.247 113.956 489.509 114.125 489.726 114.356C489.943 114.588 490.107 114.884 490.218 115.246C490.334 115.607 490.391 116.048 490.391 116.569V121.66H489.524V116.562C489.524 116.022 489.449 115.6 489.3 115.296C489.15 114.988 488.938 114.769 488.663 114.638C488.388 114.508 488.063 114.443 487.687 114.443C487.272 114.443 486.908 114.535 486.595 114.718C486.287 114.896 486.026 115.13 485.814 115.419C485.607 115.704 485.448 116.01 485.337 116.338C485.226 116.661 485.166 116.969 485.156 117.263ZM492.156 117.871V117.632C492.156 117.063 492.238 116.538 492.402 116.056C492.566 115.574 492.799 115.157 493.103 114.805C493.412 114.453 493.78 114.18 494.209 113.988C494.638 113.79 495.116 113.691 495.641 113.691C496.171 113.691 496.651 113.79 497.08 113.988C497.509 114.18 497.878 114.453 498.186 114.805C498.495 115.157 498.731 115.574 498.895 116.056C499.059 116.538 499.141 117.063 499.141 117.632V117.871C499.141 118.439 499.059 118.965 498.895 119.447C498.731 119.924 498.495 120.339 498.186 120.691C497.883 121.043 497.516 121.317 497.087 121.515C496.658 121.708 496.181 121.804 495.656 121.804C495.125 121.804 494.646 121.708 494.217 121.515C493.788 121.317 493.419 121.043 493.11 120.691C492.802 120.339 492.566 119.924 492.402 119.447C492.238 118.965 492.156 118.439 492.156 117.871ZM493.016 117.632V117.871C493.016 118.3 493.074 118.707 493.19 119.093C493.306 119.473 493.474 119.813 493.696 120.112C493.918 120.406 494.193 120.638 494.52 120.806C494.848 120.975 495.227 121.059 495.656 121.059C496.08 121.059 496.453 120.975 496.776 120.806C497.104 120.638 497.379 120.406 497.601 120.112C497.822 119.813 497.989 119.473 498.1 119.093C498.215 118.707 498.273 118.3 498.273 117.871V117.632C498.273 117.208 498.215 116.805 498.1 116.424C497.989 116.044 497.82 115.704 497.594 115.405C497.372 115.106 497.097 114.87 496.769 114.696C496.441 114.523 496.065 114.436 495.641 114.436C495.217 114.436 494.841 114.523 494.513 114.696C494.19 114.87 493.915 115.106 493.689 115.405C493.467 115.704 493.298 116.044 493.183 116.424C493.072 116.805 493.016 117.208 493.016 117.632ZM503.125 120.828L505.634 113.836H506.524L503.595 121.66H502.966L503.125 120.828ZM500.855 113.836L503.393 120.85L503.53 121.66H502.894L499.958 113.836H500.855ZM507.355 117.871V117.632C507.355 117.063 507.437 116.538 507.601 116.056C507.765 115.574 507.999 115.157 508.303 114.805C508.611 114.453 508.98 114.18 509.409 113.988C509.838 113.79 510.315 113.691 510.841 113.691C511.371 113.691 511.851 113.79 512.28 113.988C512.709 114.18 513.077 114.453 513.386 114.805C513.695 115.157 513.931 115.574 514.095 116.056C514.259 116.538 514.34 117.063 514.34 117.632V117.871C514.34 118.439 514.259 118.965 514.095 119.447C513.931 119.924 513.695 120.339 513.386 120.691C513.082 121.043 512.716 121.317 512.287 121.515C511.858 121.708 511.381 121.804 510.855 121.804C510.325 121.804 509.845 121.708 509.416 121.515C508.987 121.317 508.618 121.043 508.31 120.691C508.001 120.339 507.765 119.924 507.601 119.447C507.437 118.965 507.355 118.439 507.355 117.871ZM508.216 117.632V117.871C508.216 118.3 508.274 118.707 508.389 119.093C508.505 119.473 508.674 119.813 508.896 120.112C509.117 120.406 509.392 120.638 509.72 120.806C510.048 120.975 510.426 121.059 510.855 121.059C511.279 121.059 511.653 120.975 511.976 120.806C512.304 120.638 512.579 120.406 512.8 120.112C513.022 119.813 513.188 119.473 513.299 119.093C513.415 118.707 513.473 118.3 513.473 117.871V117.632C513.473 117.208 513.415 116.805 513.299 116.424C513.188 116.044 513.02 115.704 512.793 115.405C512.571 115.106 512.297 114.87 511.969 114.696C511.641 114.523 511.265 114.436 510.841 114.436C510.416 114.436 510.04 114.523 509.713 114.696C509.39 114.87 509.115 115.106 508.888 115.405C508.667 115.704 508.498 116.044 508.382 116.424C508.271 116.805 508.216 117.208 508.216 117.632ZM520.711 110.553V121.66H519.851V110.553H520.711ZM527.834 120.257V116.222C527.834 115.851 527.756 115.53 527.602 115.26C527.448 114.99 527.221 114.783 526.922 114.638C526.624 114.494 526.255 114.421 525.816 114.421C525.411 114.421 525.05 114.494 524.731 114.638C524.418 114.778 524.17 114.969 523.987 115.21C523.808 115.446 523.719 115.709 523.719 115.998L522.851 115.991C522.851 115.697 522.924 115.412 523.068 115.137C523.213 114.863 523.418 114.617 523.683 114.4C523.948 114.183 524.264 114.012 524.63 113.886C525.001 113.756 525.409 113.691 525.852 113.691C526.411 113.691 526.903 113.785 527.327 113.973C527.756 114.161 528.091 114.443 528.332 114.819C528.573 115.195 528.694 115.668 528.694 116.236V120.018C528.694 120.288 528.713 120.568 528.752 120.857C528.795 121.146 528.855 121.385 528.933 121.573V121.66H528.014C527.956 121.486 527.911 121.269 527.877 121.009C527.848 120.744 527.834 120.493 527.834 120.257ZM528.036 117.104L528.05 117.769H526.351C525.908 117.769 525.51 117.81 525.158 117.892C524.811 117.969 524.517 118.085 524.276 118.239C524.035 118.389 523.849 118.57 523.719 118.782C523.594 118.994 523.531 119.235 523.531 119.505C523.531 119.784 523.601 120.04 523.741 120.271C523.885 120.503 524.088 120.688 524.348 120.828C524.613 120.963 524.927 121.031 525.288 121.031C525.77 121.031 526.194 120.941 526.561 120.763C526.932 120.585 527.238 120.351 527.479 120.062C527.72 119.772 527.882 119.457 527.964 119.114L528.34 119.613C528.277 119.854 528.161 120.103 527.993 120.358C527.829 120.609 527.614 120.845 527.349 121.067C527.084 121.284 526.771 121.462 526.409 121.602C526.052 121.737 525.647 121.804 525.194 121.804C524.683 121.804 524.237 121.708 523.856 121.515C523.48 121.322 523.186 121.059 522.974 120.727C522.767 120.389 522.663 120.009 522.663 119.584C522.663 119.199 522.745 118.854 522.909 118.55C523.073 118.242 523.309 117.982 523.618 117.769C523.931 117.552 524.307 117.389 524.746 117.278C525.189 117.162 525.686 117.104 526.235 117.104H528.036ZM531.876 115.13V121.66H531.015V113.836H531.854L531.876 115.13ZM534.645 113.778L534.623 114.573C534.527 114.559 534.433 114.547 534.341 114.537C534.25 114.527 534.151 114.523 534.045 114.523C533.669 114.523 533.339 114.593 533.054 114.732C532.775 114.867 532.538 115.058 532.346 115.304C532.153 115.545 532.006 115.829 531.905 116.157C531.803 116.48 531.745 116.827 531.731 117.198L531.413 117.321C531.413 116.81 531.466 116.335 531.572 115.897C531.678 115.458 531.839 115.075 532.056 114.747C532.278 114.414 532.555 114.156 532.888 113.973C533.225 113.785 533.621 113.691 534.074 113.691C534.185 113.691 534.293 113.701 534.399 113.72C534.51 113.734 534.592 113.754 534.645 113.778Z" fill="#56C7E1"/>
</svg>
